<svg width="125" height="99" viewBox="0 0 125 99" fill="none" xmlns="http://www.w3.org/2000/svg">
<path d="M52.7245 0.47998C20.1339 0.47998 0.580078 26.6231 0.580078 39.696C0.580078 52.7688 7.09716 62.5728 20.1339 62.5728C33.1706 62.5728 39.6903 65.8391 39.6903 75.6431C39.6903 88.7134 49.4659 98.5174 62.5027 98.5174C104.871 98.5174 124.423 75.6431 124.423 52.7688C124.42 13.5528 91.8244 0.47998 52.7245 0.47998ZM44.5768 13.5528C45.6481 13.5542 46.7087 13.7665 47.6979 14.1778C48.6872 14.589 49.5858 15.1911 50.3423 15.9495C51.0989 16.708 51.6987 17.6081 52.1074 18.5984C52.5161 19.5887 52.7258 20.6498 52.7245 21.7211C52.7245 26.2361 49.0763 29.892 44.5768 29.892C40.0773 29.892 36.4292 26.2335 36.4292 21.7211C36.4278 20.6498 36.6375 19.5887 37.0462 18.5984C37.4549 17.6081 38.0547 16.708 38.8113 15.9495C39.5679 15.1911 40.4664 14.589 41.4557 14.1778C42.4449 13.7665 43.5055 13.5542 44.5768 13.5528ZM70.6451 13.5528C71.7165 13.5542 72.777 13.7665 73.7663 14.1778C74.7555 14.589 75.6541 15.1911 76.4107 15.9495C77.1672 16.708 77.767 17.6081 78.1757 18.5984C78.5845 19.5887 78.7941 20.6498 78.7928 21.7211C78.7945 22.7927 78.5851 23.854 78.1765 24.8446C77.7679 25.8352 77.1682 26.7356 76.4116 27.4944C75.655 28.2531 74.7563 28.8554 73.7669 29.2668C72.7774 29.6782 71.7167 29.8906 70.6451 29.892C69.5738 29.8903 68.5133 29.6776 67.5242 29.2661C66.5351 28.8545 65.6367 28.2522 64.8804 27.4935C64.124 26.7347 63.5245 25.8344 63.1161 24.844C62.7077 23.8536 62.4984 22.7924 62.5001 21.7211C62.4973 19.5579 63.3539 17.4822 64.8813 15.9505C66.4087 14.4187 68.482 13.5563 70.6451 13.5528ZM96.7186 26.6231C97.7904 26.6241 98.8514 26.8363 99.8411 27.2476C100.831 27.6588 101.73 28.261 102.487 29.0198C103.244 29.7786 103.844 30.6791 104.252 31.6699C104.661 32.6606 104.871 33.7222 104.869 34.794C104.871 35.8656 104.661 36.9271 104.252 37.9177C103.843 38.9083 103.243 39.8086 102.487 40.5672C101.73 41.3258 100.831 41.9278 99.8409 42.3388C98.8512 42.7497 97.7902 42.9616 96.7186 42.9623C95.6473 42.9612 94.5867 42.7491 93.5975 42.338C92.6082 41.9268 91.7097 41.3247 90.9532 40.5662C90.1968 39.8076 89.5973 38.9073 89.189 37.9169C88.7806 36.9265 88.5715 35.8653 88.5736 34.794C88.5715 33.7226 88.7806 32.6613 89.1889 31.6707C89.5972 30.6801 90.1967 29.7797 90.9531 29.0209C91.7095 28.2621 92.608 27.6598 93.5973 27.2484C94.5866 26.8369 95.6472 26.6245 96.7186 26.6231ZM21.7645 33.1608C22.8355 33.1619 23.8959 33.3739 24.885 33.7849C25.8741 34.1959 26.7725 34.7977 27.5289 35.556C28.2853 36.3144 28.8849 37.2143 29.2934 38.2044C29.7018 39.1946 29.9112 40.2555 29.9095 41.3265C29.9095 45.8415 26.2614 49.4974 21.7645 49.4974C17.2675 49.4974 13.6168 45.839 13.6168 41.3265C13.6148 39.1634 14.4719 37.0879 15.9998 35.5566C17.5277 34.0253 19.6013 33.1636 21.7645 33.1608ZM62.5001 65.8391C67.9 65.8391 72.2757 70.2251 72.2757 75.6457C72.2757 81.0585 67.9 85.4471 62.5001 85.4471C57.1001 85.4471 52.7245 81.0585 52.7245 75.6457C52.7221 74.3598 52.9731 73.0861 53.4631 71.8972C53.9532 70.7084 54.6727 69.6278 55.5805 68.7171C56.4883 67.8064 57.5667 67.0835 58.754 66.5897C59.9412 66.0959 61.2142 65.8408 62.5001 65.8391Z" fill="white"/>
</svg>
