<svg width="121" height="121" viewBox="0 0 121 121" fill="none" xmlns="http://www.w3.org/2000/svg">
<path d="M111.018 36.7519L113.092 33.3294C113.092 33.3294 114.918 30.3019 114.918 26.2364C114.918 16.388 105.521 16.6481 105.521 16.6481L85.0483 11.0749L73.8797 0.03125L59.1838 4.03227L54.3644 2.72009L50.702 6.34217L29.544 12.1028C29.544 12.1028 21.4009 11.8791 21.4009 20.4133C21.4009 23.9366 22.9852 26.5609 22.9852 26.5609L25.7083 31.0557L23.3158 33.4181L11.5042 36.635C11.5042 36.635 2.10734 36.375 2.10734 46.2233C2.12614 48.5179 2.66288 50.7785 3.67752 52.8366L0.03125 56.4425L1.94408 57.2004C1.98641 57.3032 2.00253 57.4181 2.08517 57.5007C5.78384 61.2075 5.47948 66.1861 4.95139 68.8749L2.71606 71.1143L19.6493 79.2554L42.9056 117.643C46.6325 123.5 54.5438 119.836 54.5438 119.836L114.305 91.1012L112.07 88.8619C111.542 86.173 111.237 81.1944 114.936 77.4857C115.019 77.403 115.035 77.2881 115.077 77.1874L116.99 76.4275L105.878 65.4423L118.637 59.3088L116.7 57.3677C116.242 55.0377 115.978 50.7222 119.185 47.5093C119.255 47.4367 119.268 47.34 119.306 47.2493L120.969 46.5902L111.018 36.7519ZM99.5588 18.9439L97.0392 22.9308L90.5207 16.4848L99.5588 18.9439ZM74.9641 10.3996L84.3227 20.4032L50.4823 32.632L42.4904 20.2238L74.9641 10.3996ZM27.734 34.4017L50.827 72.5192L6.83197 55.0679L27.734 34.4017ZM18.1094 38.568L15.3984 41.2488L14.314 39.5859L18.1094 38.568ZM9.54903 40.6521L12.0726 44.5363L6.6042 49.9422C6.17393 48.749 5.94837 47.4917 5.93703 46.2233C5.93703 42.5428 7.76319 41.1419 9.54903 40.6521ZM6.38853 70.6305L6.41877 70.5136L57.1057 92.6996L6.81584 68.7258C6.8622 68.4537 6.89848 68.1533 6.93678 67.851L46.308 84.3388L7.07384 65.9644C7.08385 65.1246 7.02588 64.2853 6.9005 63.4549L43.341 78.4612L6.4107 61.3063C6.17365 60.5121 5.85622 59.7442 5.46336 59.0145L55.6182 80.4305L56.759 82.3131C59.1112 86.0098 63.3783 85.3265 65.529 84.6855C68.502 86.1529 73.8313 89.5472 72.4668 94.5479C71.7472 97.1924 70.1649 98.4744 67.6313 98.4744C65.0654 98.4744 62.5035 97.132 62.4773 97.1138L6.38853 70.6305ZM56.8719 97.1541L52.9092 98.7949L49.5431 93.6288L56.8719 97.1541ZM41.5249 108L25.9461 82.2829L41.4302 89.7266L48.7529 100.998C45.8 102.26 42.5005 105.14 41.5249 108ZM110.123 83.4418C109.997 84.2723 109.939 85.1115 109.949 85.9513L70.7152 104.326L110.086 87.8379C110.125 88.1383 110.159 88.4406 110.207 88.7127L59.9175 112.689L110.604 90.5026C110.616 90.5412 110.626 90.5802 110.635 90.6195L54.5458 117.099C54.5196 117.117 51.9618 118.459 49.3919 118.459C46.8562 118.459 45.276 117.175 44.5564 114.533C42.7061 107.746 53.2276 103.898 53.3848 103.84L62.6063 99.9055C63.596 100.327 70.6567 103.098 74.1176 97.6581L76.3005 94.0581L111.562 79.0014C111.169 79.7315 110.851 80.4993 110.612 81.2932L73.6822 98.4482L110.123 83.4418ZM110.191 75.0548L80.3096 87.4388L88.6018 73.7507L102.242 67.1939L110.191 75.0548ZM115.015 52.6673C114.907 53.3872 114.857 54.1143 114.863 54.8421L80.8639 70.7656L114.984 56.4768C115.019 56.7368 115.047 57.0009 115.089 57.2347L71.5033 78.0117L115.432 58.7847C115.442 58.8178 115.451 58.8514 115.458 58.8855L66.8472 81.8374C66.825 81.8515 64.6058 83.0165 62.3806 83.0165C60.1815 83.0165 58.8129 81.9019 58.1901 79.6122C56.5857 73.7306 65.7043 70.3967 65.8414 70.3463L116.26 48.8195C115.92 49.4525 115.645 50.1183 115.44 50.8069L83.4318 65.6741L115.015 52.6673Z" fill="white"/>
</svg>
