<svg width="128" height="128" viewBox="0 0 128 128" fill="none" xmlns="http://www.w3.org/2000/svg">
<path d="M96 57.6C101.092 57.6 105.976 55.5772 109.576 51.9765C113.177 48.3758 115.2 43.4922 115.2 38.4H128C128.001 42.6567 127.152 46.8708 125.504 50.7955C123.856 54.7203 121.442 58.2767 118.402 61.2567C115.363 64.2367 111.759 66.5803 107.803 68.1503C103.846 69.7203 99.6158 70.4851 95.36 70.4C94.1058 76.5497 91.0709 82.1948 86.6328 86.6328C82.1948 91.0709 76.5497 94.1058 70.4 95.36V108.8L102.4 121.6V128H25.6V121.6L57.6 108.8V95.36C51.4503 94.1058 45.8052 91.0709 41.3672 86.6328C36.9291 82.1948 33.8942 76.5497 32.64 70.4H32C23.5131 70.4 15.3737 67.0286 9.37258 61.0274C3.37142 55.0263 0 46.8869 0 38.4H12.8C12.8 43.4922 14.8229 48.3758 18.4236 51.9765C22.0243 55.5772 26.9078 57.6 32 57.6V25.6H12.8V38.4H0V12.8H32V0H96V12.8H128V38.4H115.2V25.6H96V57.6Z" fill="#CD7F32"/>
</svg>
