<svg width="115" height="90" viewBox="0 0 115 90" fill="none" xmlns="http://www.w3.org/2000/svg">
<path d="M89.284 32.1701C82.8412 21.4575 73.9811 12.4011 63.4123 5.72506C58.6497 2.70661 53.2207 0.899895 47.5991 0.462661C41.9775 0.0254276 36.3344 0.970967 31.1623 3.21673C26.6384 5.35062 22.7019 8.55364 19.6927 12.5492C16.6836 16.5448 14.6922 21.2128 13.8907 26.1501C13.604 27.9059 13.3532 29.7334 13.1382 31.1667H9.55484C8.32704 31.1525 7.10863 31.3821 5.97019 31.8421C4.83175 32.3021 3.79592 32.9835 2.92269 33.8467C2.04947 34.7099 1.35622 35.7379 0.883106 36.8709C0.409992 38.004 0.166422 39.2197 0.166504 40.4476V71.0851C0.166504 71.9024 0.491179 72.6862 1.0691 73.2641C1.64703 73.8421 2.43086 74.1667 3.24817 74.1667H9.44734V72.7692C9.43818 69.4513 10.2277 66.1799 11.7491 63.2314C13.2705 60.2829 15.4791 57.7438 18.1885 55.8286C20.8979 53.9134 24.0284 52.6784 27.3156 52.2278C30.6027 51.7773 33.9501 52.1245 37.0748 53.2401L33.4915 56.8234C30.63 56.2971 27.6798 56.5443 24.9458 57.5397C22.2119 58.535 19.7932 60.2422 17.9398 62.4851C16.9842 63.4439 16.2183 64.5745 15.6823 65.8176C14.5798 67.9512 13.9677 70.3042 13.8909 72.7046C13.8141 75.1051 14.2744 77.4924 15.2383 79.6921C16.2023 81.8919 17.6454 83.8486 19.4623 85.4192C21.2792 86.9898 23.424 88.1348 25.7401 88.7704C28.0561 89.406 30.4849 89.5163 32.849 89.0931C35.2131 88.6699 37.4528 87.7239 39.4045 86.3243C41.3563 84.9247 42.9707 83.1068 44.1299 81.0035C45.2892 78.9001 45.9639 76.5643 46.1048 74.1667H65.7415V72.7692C65.7344 69.4556 66.5238 66.1888 68.0433 63.2441C69.5627 60.2994 71.7677 57.763 74.4724 55.8487C77.1771 53.9343 80.3022 52.6981 83.5846 52.2441C86.867 51.7901 90.2104 52.1317 93.3332 53.2401L89.7498 56.8234C86.8883 56.2971 83.9382 56.5443 81.2042 57.5397C78.4702 58.535 76.0516 60.2422 74.1982 62.4851C73.2426 63.4439 72.4766 64.5745 71.9407 65.8176C70.8531 67.9509 70.2544 70.2997 70.1879 72.6934C70.1214 75.087 70.5888 77.4654 71.5563 79.6559C72.5237 81.8463 73.9669 83.7938 75.7809 85.3569C77.595 86.9199 79.7344 88.0594 82.0438 88.6924C84.3531 89.3255 86.7745 89.4362 89.132 89.0166C91.4896 88.5971 93.7241 87.6577 95.6732 86.2667C97.6224 84.8758 99.2373 83.0682 100.401 80.9752C101.564 78.8823 102.247 76.5565 102.399 74.1667H111.752C112.569 74.1667 113.353 73.8421 113.931 73.2641C114.508 72.6862 114.833 71.9024 114.833 71.0851V64.7067C114.806 57.2127 112.278 49.9422 107.65 44.0481C103.021 38.154 96.5578 33.9737 89.284 32.1701ZM35.9998 31.1667H21.6665C21.6665 29.9126 22.0248 28.6226 22.2398 27.3326C22.8418 23.4151 24.4305 19.7151 26.8565 16.5808C29.2824 13.4465 32.4659 10.9808 36.1073 9.41589L35.9998 31.1667ZM30.1232 82.6234C28.3514 82.6234 26.6194 82.098 25.1462 81.1136C23.673 80.1293 22.5248 78.7302 21.8468 77.0933C21.1687 75.4564 20.9913 73.6551 21.337 71.9174C21.6826 70.1796 22.5358 68.5834 23.7887 67.3306C25.0415 66.0777 26.6377 65.2245 28.3755 64.8789C30.1132 64.5332 31.9145 64.7106 33.5514 65.3886C35.1883 66.0667 36.5874 67.2149 37.5718 68.6881C38.5561 70.1613 39.0815 71.8933 39.0815 73.6651C39.0815 76.041 38.1377 78.3195 36.4577 79.9996C34.7777 81.6796 32.4991 82.6234 30.1232 82.6234ZM61.0832 49.0834H50.3332V41.9167H61.0832V49.0834ZM39.5832 31.1667V7.76756C46.3161 6.85111 53.1579 8.30817 58.9332 11.8884C66.8685 16.8766 73.6978 23.4376 78.9998 31.1667H39.5832ZM86.3815 82.6234C84.6097 82.6234 82.8777 82.098 81.4045 81.1136C79.9313 80.1293 78.7831 78.7302 78.1051 77.0933C77.427 75.4564 77.2496 73.6551 77.5953 71.9174C77.941 70.1796 78.7942 68.5834 80.047 67.3306C81.2999 66.0777 82.8961 65.2245 84.6338 64.8789C86.3716 64.5332 88.1728 64.7106 89.8097 65.3886C91.4466 66.0667 92.8457 67.2149 93.8301 68.6881C94.8144 70.1613 95.3398 71.8933 95.3398 73.6651C95.3398 76.041 94.396 78.3195 92.716 79.9996C91.036 81.6796 88.7574 82.6234 86.3815 82.6234Z" fill="white"/>
</svg>
