<svg width="87" height="109" viewBox="0 0 87 109" fill="none" xmlns="http://www.w3.org/2000/svg">
<path d="M70.375 0.75H16.625C12.3484 0.75 8.24693 2.44888 5.2229 5.4729C2.19888 8.49693 0.5 12.5984 0.5 16.875V92.125C0.5 96.4016 2.19888 100.503 5.2229 103.527C8.24693 106.551 12.3484 108.25 16.625 108.25H70.375C74.6516 108.25 78.7531 106.551 81.7771 103.527C84.8011 100.503 86.5 96.4016 86.5 92.125V16.875C86.5 12.5984 84.8011 8.49693 81.7771 5.4729C78.7531 2.44888 74.6516 0.75 70.375 0.75ZM43.5 16.875C46.6892 16.875 49.8068 17.8207 52.4586 19.5926C55.1103 21.3644 57.1771 23.8828 58.3976 26.8292C59.618 29.7757 59.9374 33.0179 59.3152 36.1458C58.693 39.2738 57.1572 42.147 54.9021 44.4021C52.647 46.6572 49.7738 48.193 46.6458 48.8152C43.5179 49.4374 40.2757 49.118 37.3292 47.8976C34.3828 46.6771 31.8644 44.6103 30.0926 41.9586C28.3207 39.3068 27.375 36.1892 27.375 33C27.375 28.7234 29.0739 24.6219 32.0979 21.5979C35.1219 18.5739 39.2234 16.875 43.5 16.875ZM43.5 92.125C39.7792 92.125 36.142 91.0217 33.0483 88.9545C29.9546 86.8874 27.5434 83.9493 26.1195 80.5117C24.6956 77.0742 24.3231 73.2916 25.049 69.6424C25.7749 65.9931 27.5666 62.641 30.1976 60.0101C32.8285 57.3791 36.1806 55.5874 39.8299 54.8615C43.4791 54.1356 47.2617 54.5081 50.6992 55.932C54.1368 57.3559 57.0749 59.7671 59.142 62.8608C61.2092 65.9545 62.3125 69.5917 62.3125 73.3125C62.3125 78.3019 60.3305 83.0869 56.8024 86.615C53.2744 90.143 48.4894 92.125 43.5 92.125Z" fill="white"/>
</svg>
