<svg width="162" height="81" viewBox="0 0 162 81" fill="none" xmlns="http://www.w3.org/2000/svg">
<path d="M121.278 0.1875H40.4199C33.7555 0.186551 27.1942 1.82911 21.3202 4.96895C15.4462 8.10879 10.4418 12.6485 6.75251 18.1838C3.06321 23.7192 0.803495 30.0785 0.17455 36.6956C-0.454396 43.3126 0.566941 49.9821 3.14763 56.1103C5.72833 62.2385 9.78829 67.6351 14.9661 71.8199C20.1439 76.0046 26.2788 78.8475 32.8247 80.0955C39.3707 81.3435 46.1244 80.9579 52.4848 78.973C58.8451 76.9881 64.6147 73.4655 69.2798 68.7188H92.4C97.0646 73.4649 102.833 76.9873 109.193 78.9723C115.552 80.9574 122.305 81.3435 128.851 80.0963C135.396 78.8492 141.531 76.0074 146.709 71.824C151.887 67.6406 155.947 62.2454 158.529 56.1184C161.111 49.9915 162.133 43.323 161.506 36.7066C160.879 30.0901 158.622 23.7308 154.935 18.1949C151.248 12.6589 146.245 8.11797 140.373 4.97624C134.501 1.83451 127.941 0.189459 121.278 0.1875ZM62.6509 43.5234C62.6509 44.3253 62.3315 45.0943 61.763 45.6613C61.1945 46.2283 60.4234 46.5469 59.6194 46.5469H46.4829V59.6484C46.4829 60.4503 46.1635 61.2193 45.595 61.7863C45.0265 62.3533 44.2554 62.6719 43.4514 62.6719H37.3884C36.5844 62.6719 35.8133 62.3533 35.2448 61.7863C34.6763 61.2193 34.3569 60.4503 34.3569 59.6484V46.5469H21.2204C20.4164 46.5469 19.6453 46.2283 19.0768 45.6613C18.5083 45.0943 18.1889 44.3253 18.1889 43.5234V37.4766C18.1889 36.6747 18.5083 35.9057 19.0768 35.3387C19.6453 34.7717 20.4164 34.4531 21.2204 34.4531H34.3569V21.3516C34.3569 20.5497 34.6763 19.7807 35.2448 19.2137C35.8133 18.6467 36.5844 18.3281 37.3884 18.3281H43.4514C44.2554 18.3281 45.0265 18.6467 45.595 19.2137C46.1635 19.7807 46.4829 20.5497 46.4829 21.3516V34.4531H59.6194C60.4234 34.4531 61.1945 34.7717 61.763 35.3387C62.3315 35.9057 62.6509 36.6747 62.6509 37.4766V43.5234ZM117.218 62.6719C115.219 62.6719 113.266 62.0808 111.604 60.9734C109.942 59.866 108.647 58.292 107.882 56.4505C107.117 54.6089 106.917 52.5826 107.307 50.6276C107.697 48.6726 108.659 46.8769 110.073 45.4674C111.486 44.058 113.286 43.0981 115.247 42.7093C117.207 42.3204 119.238 42.52 121.085 43.2828C122.931 44.0456 124.51 45.3373 125.62 46.9946C126.73 48.652 127.323 50.6005 127.323 52.5938C127.323 55.2666 126.258 57.83 124.363 59.7201C122.468 61.6101 119.898 62.6719 117.218 62.6719ZM133.386 38.4844C131.387 38.4844 129.434 37.8933 127.772 36.7859C126.11 35.6785 124.815 34.1045 124.05 32.263C123.285 30.4214 123.085 28.3951 123.475 26.4401C123.865 24.4851 124.827 22.6894 126.241 21.2799C127.654 19.8705 129.454 18.9106 131.415 18.5218C133.375 18.1329 135.406 18.3325 137.253 19.0953C139.099 19.8581 140.678 21.1498 141.788 22.8071C142.898 24.4645 143.491 26.413 143.491 28.4062C143.491 31.0791 142.426 33.6425 140.531 35.5326C138.636 37.4226 136.066 38.4844 133.386 38.4844Z" fill="white"/>
</svg>
