<svg width="162" height="129" viewBox="0 0 162 129" fill="none" xmlns="http://www.w3.org/2000/svg">
<path d="M60.6199 48.9042C61.0986 41.1441 64.9787 33.4847 71.7059 28.7984C70.3957 26.0773 67.6998 24.1876 64.5 24.1876H57.0926L64.8275 18.6446C66.6416 17.3597 67.0699 14.8402 65.7598 13.0261L63.4166 9.7507C62.1316 7.93664 59.6121 7.50832 57.798 8.81848L49.7355 14.5882L52.633 6.87844C53.4141 4.78722 52.3559 2.46926 50.2646 1.6882L46.4854 0.277264C44.3941 -0.503791 42.0762 0.554412 41.2951 2.64562L36.2812 15.9991L31.2674 2.62043C30.4863 0.529217 28.1684 -0.528986 26.0771 0.252069L22.2979 1.66301C20.2066 2.44406 19.1484 4.78723 19.9547 6.85324L22.8521 14.563L14.7645 8.81848C12.9504 7.53351 10.4309 7.93664 9.1459 9.7507L6.80273 13.0261C5.51777 14.8402 5.9209 17.3597 7.73496 18.6446L15.4699 24.1876H8.0625C3.60293 24.1876 0 27.7905 0 32.2501V120.938C0 125.397 3.60293 129 8.0625 129H50.6174C49.2316 126.607 48.375 123.885 48.375 120.938V64.5001C48.375 56.9667 53.6156 50.6427 60.6199 48.9042ZM56.4375 120.938C56.4375 125.397 60.0404 129 64.5 129H104.812V96.7501H56.4375V120.938ZM112.875 129H153.188C157.647 129 161.25 125.397 161.25 120.938V96.7501H112.875V129ZM153.188 56.4376H148.048C148.703 54.5228 149.156 52.5323 149.156 50.4411C149.156 41.4968 142.354 32.2501 130.99 32.2501C118.871 32.2501 111.867 44.2683 108.844 51.2222C105.795 44.2683 98.7908 32.2501 86.6971 32.2501C75.334 32.2501 68.5312 41.4968 68.5312 50.4411C68.5312 52.5323 68.9596 54.5228 69.6398 56.4376H64.5C60.0404 56.4376 56.4375 60.0405 56.4375 64.5001V88.6876H104.812V56.4376H108.667L108.844 56.3872L109.02 56.4376H112.875V88.6876H161.25V64.5001C161.25 60.0405 157.647 56.4376 153.188 56.4376ZM84.6562 56.4376C83.976 56.0849 83.3713 55.6818 82.8422 55.2282C81.0029 53.6157 80.625 51.7513 80.625 50.4411C80.625 47.9972 82.2375 44.3439 86.6971 44.3439C91.4086 44.3439 95.6666 51.2474 97.909 56.4376H84.6562ZM134.845 55.2282C134.316 55.6818 133.712 56.0849 133.031 56.4376H119.779C121.996 51.323 126.279 44.3439 130.99 44.3439C135.45 44.3439 137.062 47.9972 137.062 50.4411C137.062 51.7513 136.685 53.6157 134.845 55.2282Z" fill="white"/>
</svg>
