<svg width="200" height="200" viewBox="0 0 200 200" fill="none" xmlns="http://www.w3.org/2000/svg">
<path d="M117.578 147.266V96.4844H92.1875L100 147.266H117.578Z" fill="#FFC34D"/>
<path d="M82.4219 96.4844H100V147.266H82.4219V96.4844Z" fill="#FFE14D"/>
<path d="M142.075 141.406H100L92.1875 192.72H154.903L142.075 141.406Z" fill="#733E33"/>
<path d="M57.9248 141.406L45.0967 192.72H99.9998V141.406H57.9248Z" fill="#8C624D"/>
<path d="M42.7523 70.3125H23.4375C10.5141 70.3125 0 59.7984 0 46.875C0 33.9516 10.5141 23.4375 23.4375 23.4375H41.0156V35.1562H23.4375C16.9758 35.1562 11.7188 40.4133 11.7188 46.875C11.7188 53.3367 16.9758 58.5938 23.4375 58.5938H42.7523V70.3125Z" fill="#FFE14D"/>
<path d="M176.562 70.3125H157.248V58.5938H176.562C183.024 58.5938 188.281 53.3367 188.281 46.875C188.281 40.4133 183.024 35.1562 176.562 35.1562H158.984V23.4375H176.562C189.486 23.4375 200 33.9516 200 46.875C200 59.7984 189.486 70.3125 176.562 70.3125Z" fill="#FFC34D"/>
<path d="M92.1875 5.85938L100 102.344H114.62C142.313 102.344 164.844 79.8137 164.844 52.1203V5.85938H92.1875Z" fill="#FFE14D"/>
<path d="M124.023 176.562V164.844H100L96.0938 170.703L100 176.562H124.023Z" fill="#FFEECC"/>
<path d="M166.797 200V188.281H100L96.0938 195.117L100 200H166.797Z" fill="#8C624D"/>
<path d="M33.2031 188.281H100V200H33.2031V188.281Z" fill="#A6896B"/>
<path d="M75.9766 164.844H100V176.562H75.9766V164.844Z" fill="#FFFBE6"/>
<path d="M35.1562 5.85938V52.1203C35.1562 79.8137 57.6867 102.344 85.3797 102.344H100V5.85938H35.1562Z" fill="#FFFF99"/>
<path d="M176.562 0H100L96.0938 5.85938L100 11.7188H176.562V0Z" fill="#FFC34D"/>
<path d="M23.4375 0H100V11.7188H23.4375V0Z" fill="#FFE14D"/>
</svg>
