<svg width="100" height="588" viewBox="0 0 100 588" fill="none" xmlns="http://www.w3.org/2000/svg">
<circle cx="50" cy="50" r="50" fill="white"/>
<circle cx="50" cy="294" r="50" fill="white"/>
<circle cx="50" cy="538" r="50" fill="white"/>
<path d="M43.064 71V39.976L36.624 41.488V36L46.088 31.8H50.512V71H43.064Z" fill="#1C1046"/>
<path d="M33.8599 313V307.792C36.2492 305.813 38.5639 303.853 40.8039 301.912C43.0812 299.971 45.0972 298.048 46.8519 296.144C48.6439 294.24 50.0626 292.392 51.1079 290.6C52.1906 288.771 52.7319 286.997 52.7319 285.28C52.7319 283.675 52.2839 282.256 51.3879 281.024C50.5292 279.792 49.0919 279.176 47.0759 279.176C45.0226 279.176 43.4732 279.848 42.4279 281.192C41.3826 282.536 40.8599 284.16 40.8599 286.064H33.9159C33.9906 283.189 34.6252 280.8 35.8199 278.896C37.0146 276.955 38.6012 275.517 40.5799 274.584C42.5586 273.613 44.7799 273.128 47.2439 273.128C51.2386 273.128 54.3372 274.229 56.5399 276.432C58.7799 278.597 59.8999 281.416 59.8999 284.888C59.8999 287.053 59.3959 289.163 58.3879 291.216C57.4172 293.269 56.1292 295.248 54.5239 297.152C52.9186 299.056 51.1826 300.848 49.3159 302.528C47.4492 304.171 45.6386 305.701 43.8839 307.12H60.8519V313H33.8599Z" fill="#1C1046"/>
<path d="M46.9523 557.672C44.3763 557.672 42.043 557.224 39.9523 556.328C37.8616 555.395 36.1816 553.976 34.9123 552.072C33.643 550.168 32.971 547.779 32.8963 544.904H39.9523C39.9896 546.808 40.6056 548.413 41.8003 549.72C43.0323 550.989 44.7496 551.624 46.9523 551.624C49.043 551.624 50.6483 551.045 51.7683 549.888C52.8883 548.731 53.4483 547.275 53.4483 545.52C53.4483 543.467 52.7016 541.917 51.2083 540.872C49.7523 539.789 47.867 539.248 45.5523 539.248H42.6403V533.368H45.6083C47.5123 533.368 49.099 532.92 50.3683 532.024C51.6376 531.128 52.2723 529.803 52.2723 528.048C52.2723 526.592 51.787 525.435 50.8163 524.576C49.883 523.68 48.5763 523.232 46.8963 523.232C45.067 523.232 43.6296 523.773 42.5843 524.856C41.5763 525.939 41.0163 527.264 40.9043 528.832H33.9043C34.0536 525.211 35.3043 522.355 37.6563 520.264C40.0456 518.173 43.1256 517.128 46.8963 517.128C49.5843 517.128 51.843 517.613 53.6723 518.584C55.539 519.517 56.939 520.768 57.8723 522.336C58.843 523.904 59.3283 525.64 59.3283 527.544C59.3283 529.747 58.7123 531.613 57.4803 533.144C56.2856 534.637 54.7923 535.645 53.0003 536.168C55.203 536.616 56.995 537.699 58.3763 539.416C59.7576 541.096 60.4483 543.224 60.4483 545.8C60.4483 547.965 59.9256 549.944 58.8803 551.736C57.835 553.528 56.3043 554.965 54.2883 556.048C52.3096 557.131 49.8643 557.672 46.9523 557.672Z" fill="#1C1046"/>
<line x1="48" y1="251.014" x2="48" y2="90.9858" stroke="white" stroke-width="4"/>
<line x1="48" y1="496.028" x2="48" y2="336" stroke="white" stroke-width="4"/>
</svg>
