<svg width="57" height="75" viewBox="0 0 57 75" fill="none" xmlns="http://www.w3.org/2000/svg">
<rect x="0.0963974" y="33.5538" width="5.9833" height="57" rx="2.99165" transform="rotate(-77.0801 0.0963974 33.5538)" fill="#18C5D9"/>
<path d="M47.0312 37.7188C47.0312 42.1146 46.3333 45.9062 44.9375 49.0938C43.5417 52.2604 41.5833 54.7396 39.0625 56.5312L47.1875 62.9062L43.0938 66.6875L33.5 59.0625C32 59.4375 30.4167 59.625 28.75 59.625C25.1667 59.625 21.9896 58.75 19.2188 57C16.4479 55.2292 14.2917 52.7188 12.75 49.4688C11.2292 46.1979 10.4479 42.4167 10.4062 38.125V34.8438C10.4062 30.4688 11.1667 26.6042 12.6875 23.25C14.2083 19.8958 16.3542 17.3333 19.125 15.5625C21.9167 13.7708 25.1042 12.875 28.6875 12.875C32.3542 12.875 35.5729 13.7604 38.3438 15.5312C41.1354 17.3021 43.2812 19.8542 44.7812 23.1875C46.2812 26.5 47.0312 30.375 47.0312 34.8125V37.7188ZM41.0312 34.7812C41.0312 29.4271 39.9583 25.3021 37.8125 22.4062C35.6875 19.4896 32.6458 18.0312 28.6875 18.0312C24.9167 18.0312 21.9375 19.4792 19.75 22.375C17.5833 25.25 16.4688 29.25 16.4062 34.375V37.7188C16.4062 42.9271 17.4896 47.0312 19.6562 50.0312C21.8438 53.0312 24.875 54.5312 28.75 54.5312C32.625 54.5312 35.625 53.125 37.75 50.3125C39.875 47.4792 40.9688 43.4271 41.0312 38.1562V34.7812Z" fill="#18C5D9"/>
</svg>
