<svg width="113" height="113" viewBox="0 0 113 113" fill="none" xmlns="http://www.w3.org/2000/svg">
<path d="M33.7436 84.9526C43.4791 91.1365 54.9722 96.8125 64.365 96.8125C66.4801 96.9027 68.5914 96.5619 70.5706 95.8106C72.5499 95.0594 74.3557 93.9135 75.8782 92.4426C85.0937 83.2111 76.4426 66.6507 68.0657 50.6305L91.4509 27.2452C95.6172 29.9269 99.6682 32.7836 103.593 35.8076L108.906 29.6882C105.156 26.7654 101.294 23.9898 97.3285 21.3677L112.938 5.75866L107.237 0.0625L90.2778 17.0179C76.9102 9.31825 61.6237 3.9325 53.0775 12.4949C44.8537 20.7307 50.8522 34.7957 58.1891 49.1107L32.764 74.5318C28.8906 71.8609 25.1251 69.0368 21.4765 66.0662L16.1875 72.1574C19.6715 75.0168 23.2548 77.7531 26.9308 80.361L8.125 99.1708V0.0625H0.0625V104.875C0.0625 107.013 0.911939 109.064 2.42395 110.576C3.93596 112.088 5.98669 112.938 8.125 112.938H112.938V104.875H13.8212L33.7436 84.9526ZM58.7777 18.2072C63.3531 13.6196 73.6651 17.0542 84.3237 22.9761L64.1876 43.1082C58.8946 32.5503 54.7142 22.2787 58.7777 18.2072ZM62.0873 56.6088C68.4567 68.8316 74.9147 81.9896 70.178 86.7344C64.889 92.0314 51.9487 86.6296 39.6534 79.0427L62.0873 56.6088Z" fill="white"/>
</svg>
