<svg width="129" height="129" viewBox="0 0 129 129" fill="none" xmlns="http://www.w3.org/2000/svg">
<path d="M24.4126 3.25399C24.4128 3.04606 24.3587 2.84169 24.2556 2.66108C24.1526 2.48047 24.0042 2.32989 23.8251 2.22421C23.646 2.11852 23.4425 2.0614 23.2346 2.0585C23.0267 2.05559 22.8216 2.10699 22.6396 2.20763L8.84572 9.82266C8.65861 9.92597 8.50263 10.0776 8.39402 10.2616C8.2854 10.4457 8.22814 10.6555 8.22818 10.8693V26.9328C7.69972 26.6904 7.12525 26.5648 6.54387 26.5644C4.29695 26.5644 2.47559 28.3858 2.47559 30.6327C2.47559 32.8796 4.29695 34.701 6.54387 34.701C8.75149 34.701 10.5441 32.9416 10.6064 30.7489C10.6106 30.7103 10.619 30.6753 10.619 30.6327V16.6259L22.0224 10.3303V18.9111C21.4956 18.6709 20.9235 18.5464 20.3446 18.546C18.0977 18.546 16.2763 20.3674 16.2763 22.6143C16.2763 24.8612 18.0977 26.6826 20.3446 26.6826C22.5915 26.6826 24.4129 24.8612 24.4129 22.6143C24.4129 22.5911 24.4099 22.569 24.4094 22.546C24.4096 22.5345 24.4129 22.5236 24.4129 22.5118V3.25399H24.4126Z" fill="white"/>
<path d="M123.997 1.34696L117.613 4.87178C117.404 4.98726 117.229 5.15666 117.108 5.36235C116.986 5.56805 116.922 5.80251 116.922 6.04135V23.9912C116.332 23.7205 115.69 23.5802 115.04 23.5798C112.53 23.5798 110.494 25.6151 110.494 28.126C110.494 30.6368 112.529 32.672 115.04 32.672C117.508 32.672 119.512 30.705 119.58 28.2543C119.585 28.2117 119.594 28.1729 119.594 28.126V13.0016C119.594 12.676 119.771 12.3762 120.056 12.219L124.862 9.56592C125.001 9.48869 125.118 9.37535 125.199 9.23771C125.281 9.10007 125.323 8.94317 125.323 8.78335V2.12952C125.323 1.449 124.593 1.0179 123.997 1.34696Z" fill="white"/>
<path d="M45.0275 29.0497C43.6244 29.0497 42.251 28.3573 41.4375 27.0882C40.1681 25.1079 40.7448 22.4734 42.7252 21.2041C57.2815 11.875 76.6469 11.8841 90.914 21.225C92.882 22.5135 93.4328 25.1535 92.1443 27.1215C90.8555 29.0895 88.2158 29.64 86.2478 28.3518C74.7416 20.8181 59.0984 20.8282 47.3216 28.376C46.6374 28.816 45.841 29.0499 45.0275 29.0497Z" fill="black"/>
<path d="M109.985 63.6497C107.291 63.6497 105.108 61.4662 105.108 58.7731C105.108 37.5307 87.8261 20.2487 66.5837 20.2487C45.3412 20.2487 28.059 37.5307 28.059 58.7731C28.059 61.4665 25.8756 63.6497 23.1825 63.6497C20.4893 63.6497 18.3057 61.4662 18.3057 58.7731C18.3057 32.1525 39.9631 10.4954 66.5834 10.4954C93.2038 10.4954 114.861 32.1528 114.861 58.7731C114.861 61.4662 112.678 63.6497 109.985 63.6497Z" fill="white"/>
<path d="M23.1817 90.9389C22.7383 90.9389 22.313 90.7628 21.9995 90.4492C21.6859 90.1357 21.5098 89.7104 21.5098 89.267V58.7731C21.5098 58.3297 21.6859 57.9044 21.9995 57.5908C22.313 57.2773 22.7383 57.1011 23.1817 57.1011C23.6252 57.1011 24.0504 57.2773 24.364 57.5908C24.6775 57.9044 24.8537 58.3297 24.8537 58.7731V89.267C24.8537 89.4865 24.8105 89.704 24.7265 89.9068C24.6425 90.1097 24.5193 90.294 24.3641 90.4493C24.2088 90.6046 24.0245 90.7277 23.8216 90.8117C23.6187 90.8957 23.4013 90.939 23.1817 90.9389ZM111.656 89.267V58.7731C111.656 58.3297 111.479 57.9044 111.166 57.5908C110.852 57.2773 110.427 57.1011 109.984 57.1011C109.54 57.1011 109.115 57.2773 108.801 57.5908C108.488 57.9044 108.312 58.3297 108.312 58.7731V89.267C108.312 89.7104 108.488 90.1357 108.801 90.4492C109.115 90.7628 109.54 90.9389 109.984 90.9389C110.427 90.9389 110.852 90.7628 111.166 90.4492C111.479 90.1357 111.656 89.7104 111.656 89.267Z" fill="white"/>
<path d="M34.4305 66.3957C24.1707 66.3957 15.8535 74.7129 15.8535 84.973C15.8535 95.2327 24.1707 103.55 34.4305 103.55H39.9453V66.3957H34.4305Z" fill="white"/>
<path d="M99.3312 66.3957H93.8164V103.55H99.3312C109.591 103.55 117.908 95.2327 117.908 84.973C117.908 74.7129 109.591 66.3957 99.3312 66.3957Z" fill="white"/>
<path d="M22.9222 128.152C22.0354 128.154 21.1522 128.039 20.2953 127.811C17.0985 126.954 14.6745 124.519 13.811 121.296C13.2605 119.241 12.6254 113.816 18.606 107.836C19.2832 107.158 19.9033 106.576 20.4503 106.062C23.5793 103.123 24.5236 102.235 24.5236 94.2615C24.5236 93.8181 24.6997 93.3928 25.0133 93.0792C25.3268 92.7657 25.7521 92.5895 26.1956 92.5895C26.639 92.5895 27.0643 92.7657 27.3778 93.0792C27.6914 93.3928 27.8675 93.8181 27.8675 94.2615C27.8675 103.321 26.3873 105.073 22.7398 108.499C22.2107 108.996 21.611 109.56 20.9703 110.2C16.222 114.949 16.6407 118.937 17.0411 120.431C17.5999 122.516 19.1016 124.028 21.1608 124.581C24.2973 125.421 28.0819 123.918 31.5435 120.457C36.6561 115.344 42.6682 113.464 47.6247 115.427C51.4768 116.953 53.9535 120.601 54.0888 124.949C54.0977 125.169 54.0629 125.39 53.9862 125.597C53.9095 125.804 53.7925 125.994 53.642 126.156C53.4915 126.317 53.3105 126.448 53.1093 126.539C52.9082 126.63 52.6909 126.681 52.4701 126.688C52.2493 126.694 52.0293 126.658 51.8229 126.579C51.6165 126.5 51.4277 126.381 51.2674 126.229C51.1072 126.077 50.9786 125.895 50.8892 125.693C50.7998 125.491 50.7514 125.273 50.7466 125.052C50.6521 122.014 49.0248 119.578 46.3934 118.536C42.7156 117.079 38.0482 118.681 33.9083 122.821C30.4344 126.294 26.5531 128.152 22.9222 128.152Z" fill="white"/>
<path d="M42.9871 66.2859V103.66C42.9871 103.875 42.9446 104.089 42.862 104.288C42.7795 104.488 42.6585 104.669 42.5059 104.821C42.3534 104.974 42.1723 105.095 41.973 105.177C41.7737 105.26 41.5601 105.302 41.3443 105.302H38.5454C38.3297 105.302 38.1161 105.26 37.9167 105.177C37.7174 105.095 37.5364 104.974 37.3838 104.821C37.2313 104.669 37.1103 104.488 37.0277 104.288C36.9452 104.089 36.9027 103.875 36.9027 103.66V66.2861C36.9027 66.0704 36.9452 65.8568 37.0277 65.6575C37.1103 65.4582 37.2313 65.2771 37.3838 65.1245C37.5364 64.972 37.7174 64.851 37.9167 64.7684C38.1161 64.6859 38.3297 64.6434 38.5454 64.6434H41.3443C41.5601 64.6433 41.7737 64.6857 41.973 64.7683C42.1723 64.8508 42.3534 64.9718 42.506 65.1243C42.6585 65.2768 42.7796 65.4579 42.8621 65.6572C42.9446 65.8565 42.9871 66.0701 42.9871 66.2859ZM95.216 64.6431H92.417C91.9813 64.6431 91.5635 64.8162 91.2554 65.1243C90.9474 65.4323 90.7743 65.8502 90.7743 66.2859V103.66C90.7743 103.875 90.8168 104.089 90.8993 104.288C90.9819 104.488 91.1029 104.669 91.2554 104.821C91.408 104.974 91.5891 105.095 91.7884 105.177C91.9877 105.26 92.2013 105.302 92.417 105.302H95.216C95.6516 105.302 96.0695 105.129 96.3775 104.821C96.6856 104.513 96.8587 104.095 96.8587 103.66V66.2861C96.8587 66.0704 96.8163 65.8567 96.7337 65.6574C96.6512 65.458 96.5302 65.2769 96.3776 65.1244C96.2251 64.9718 96.044 64.8508 95.8447 64.7682C95.6453 64.6856 95.4317 64.6431 95.216 64.6431ZM109.984 57.1301C109.548 57.1301 109.13 57.3032 108.822 57.6113C108.514 57.9193 108.341 58.3372 108.341 58.7729C108.341 59.2085 108.514 59.6264 108.822 59.9345C109.13 60.2425 109.548 60.4156 109.984 60.4156C110.42 60.4156 110.837 60.2425 111.146 59.9345C111.454 59.6264 111.627 59.2085 111.627 58.7729C111.627 58.3372 111.454 57.9193 111.146 57.6113C110.837 57.3032 110.42 57.1301 109.984 57.1301ZM23.1818 57.1301C22.7461 57.1301 22.3283 57.3032 22.0202 57.6113C21.7121 57.9193 21.5391 58.3372 21.5391 58.7729C21.5391 59.2085 21.7121 59.6264 22.0202 59.9345C22.3283 60.2425 22.7461 60.4156 23.1818 60.4156C23.6175 60.4156 24.0353 60.2425 24.3434 59.9345C24.6515 59.6264 24.8245 59.2085 24.8245 58.7729C24.8245 58.3372 24.6515 57.9193 24.3434 57.6113C24.0353 57.3032 23.6175 57.1301 23.1818 57.1301Z" fill="black"/>
</svg>
