<svg width="119" height="87" viewBox="0 0 119 87" fill="none" xmlns="http://www.w3.org/2000/svg">
<path d="M107.875 0.5H11.125C8.27392 0.5 5.53962 1.63259 3.5236 3.6486C1.50759 5.66462 0.375 8.39892 0.375 11.25V75.75C0.375 78.6011 1.50759 81.3354 3.5236 83.3514C5.53962 85.3674 8.27392 86.5 11.125 86.5H107.875C110.726 86.5 113.46 85.3674 115.476 83.3514C117.492 81.3354 118.625 78.6011 118.625 75.75V11.25C118.625 8.39892 117.492 5.66462 115.476 3.6486C113.46 1.63259 110.726 0.5 107.875 0.5ZM11.125 11.25H54.125V75.75H11.125V11.25ZM107.875 75.75H59.5V11.25H107.891L107.875 75.75ZM102.5 51.5625C102.5 50.0844 101.291 48.875 99.8125 48.875H94.4375C92.9594 48.875 91.75 50.0844 91.75 51.5625V67.6875C91.75 69.1656 92.9594 70.375 94.4375 70.375H99.8125C101.291 70.375 102.5 69.1656 102.5 67.6875V51.5625ZM86.375 19.3125C86.375 17.8344 85.1656 16.625 83.6875 16.625H67.5625C66.0844 16.625 64.875 17.8344 64.875 19.3125V46.1875C64.875 47.6656 66.0844 48.875 67.5625 48.875H83.6875C85.1656 48.875 86.375 47.6656 86.375 46.1875V19.3125ZM94.4375 32.75H99.8125C101.291 32.75 102.5 31.5406 102.5 30.0625C102.5 28.5844 101.291 27.375 99.8125 27.375H94.4375C92.9594 27.375 91.75 28.5844 91.75 30.0625C91.75 31.5406 92.9594 32.75 94.4375 32.75ZM94.4375 43.5H99.8125C101.291 43.5 102.5 42.2906 102.5 40.8125C102.5 39.3344 101.291 38.125 99.8125 38.125H94.4375C92.9594 38.125 91.75 39.3344 91.75 40.8125C91.75 42.2906 92.9594 43.5 94.4375 43.5ZM67.5625 59.625H83.6875C85.1656 59.625 86.375 58.4156 86.375 56.9375C86.375 55.4594 85.1656 54.25 83.6875 54.25H67.5625C66.0844 54.25 64.875 55.4594 64.875 56.9375C64.875 58.4156 66.0844 59.625 67.5625 59.625ZM83.6875 65H67.5625C66.0844 65 64.875 66.2094 64.875 67.6875C64.875 69.1656 66.0844 70.375 67.5625 70.375H83.6875C85.1656 70.375 86.375 69.1656 86.375 67.6875C86.375 66.2094 85.1656 65 83.6875 65ZM94.4375 22H99.8125C101.291 22 102.5 20.7906 102.5 19.3125C102.5 17.8344 101.291 16.625 99.8125 16.625H94.4375C92.9594 16.625 91.75 17.8344 91.75 19.3125C91.75 20.7906 92.9594 22 94.4375 22ZM48.75 19.3125C48.75 17.8344 47.5406 16.625 46.0625 16.625H19.1875C17.7094 16.625 16.5 17.8344 16.5 19.3125V35.4375C16.5 36.9156 17.7094 38.125 19.1875 38.125H46.0625C47.5406 38.125 48.75 36.9156 48.75 35.4375V19.3125ZM46.0679 54.25H19.1929C17.7201 54.25 16.5054 55.4594 16.5054 56.9375C16.5054 58.4156 17.7201 59.625 19.1929 59.625H46.0679C47.5406 59.625 48.75 58.4156 48.75 56.9375C48.75 55.4594 47.5406 54.25 46.0679 54.25ZM46.0679 43.5H19.1929C17.7201 43.5 16.5054 44.7094 16.5054 46.1875C16.5054 47.6656 17.7201 48.875 19.1929 48.875H46.0679C47.5406 48.875 48.75 47.6656 48.75 46.1875C48.75 44.7094 47.5406 43.5 46.0679 43.5ZM46.0679 65H19.1929C17.7201 65 16.5054 66.2094 16.5054 67.6875C16.5054 69.1656 17.7201 70.375 19.1929 70.375H46.0679C47.5406 70.375 48.75 69.1656 48.75 67.6875C48.75 66.2094 47.5406 65 46.0679 65Z" fill="white"/>
</svg>
