<svg width="113" height="158" viewBox="0 0 113 158" fill="none" xmlns="http://www.w3.org/2000/svg">
<circle cx="1.22209" cy="1.2216" r="1.2216" fill="#524971"/>
<circle cx="10.3837" cy="1.2216" r="1.2216" fill="#524971"/>
<circle cx="19.5458" cy="1.2216" r="1.2216" fill="#524971"/>
<circle cx="28.7074" cy="1.2216" r="1.2216" fill="#524971"/>
<circle cx="37.87" cy="1.2216" r="1.2216" fill="#524971"/>
<circle cx="47.0322" cy="1.2216" r="1.2216" fill="#524971"/>
<circle cx="56.1933" cy="1.2216" r="1.2216" fill="#524971"/>
<circle cx="65.3564" cy="1.2216" r="1.2216" fill="#524971"/>
<circle cx="74.518" cy="1.2216" r="1.2216" fill="#524971"/>
<circle cx="83.6801" cy="1.2216" r="1.2216" fill="#524971"/>
<circle cx="92.8422" cy="1.2216" r="1.2216" fill="#524971"/>
<circle cx="102.003" cy="1.2216" r="1.2216" fill="#524971"/>
<circle cx="111.166" cy="1.2216" r="1.2216" fill="#524971"/>
<circle cx="1.2216" cy="12.8268" r="1.2216" fill="#524971"/>
<circle cx="10.3837" cy="12.8268" r="1.2216" fill="#524971"/>
<circle cx="19.5458" cy="12.8268" r="1.2216" fill="#524971"/>
<circle cx="28.7074" cy="12.8268" r="1.2216" fill="#524971"/>
<circle cx="37.87" cy="12.8268" r="1.2216" fill="#524971"/>
<circle cx="47.0322" cy="12.8268" r="1.2216" fill="#524971"/>
<circle cx="56.1933" cy="12.8268" r="1.2216" fill="#524971"/>
<circle cx="65.3564" cy="12.8268" r="1.2216" fill="#524971"/>
<circle cx="74.518" cy="12.8268" r="1.2216" fill="#524971"/>
<circle cx="83.6801" cy="12.8268" r="1.2216" fill="#524971"/>
<circle cx="92.8422" cy="12.8268" r="1.2216" fill="#524971"/>
<circle cx="102.003" cy="12.8268" r="1.2216" fill="#524971"/>
<circle cx="111.166" cy="12.8268" r="1.2216" fill="#524971"/>
<circle cx="1.2216" cy="24.4321" r="1.2216" fill="#524971"/>
<circle cx="10.3837" cy="24.4321" r="1.2216" fill="#524971"/>
<circle cx="19.5458" cy="24.4321" r="1.2216" fill="#524971"/>
<circle cx="28.7074" cy="24.4321" r="1.2216" fill="#524971"/>
<circle cx="37.87" cy="24.4321" r="1.2216" fill="#524971"/>
<circle cx="47.0322" cy="24.4321" r="1.2216" fill="#524971"/>
<circle cx="56.1933" cy="24.4321" r="1.2216" fill="#524971"/>
<circle cx="65.3564" cy="24.4321" r="1.2216" fill="#524971"/>
<circle cx="74.518" cy="24.4321" r="1.2216" fill="#524971"/>
<circle cx="83.6801" cy="24.4321" r="1.2216" fill="#524971"/>
<circle cx="92.8422" cy="24.4321" r="1.2216" fill="#524971"/>
<circle cx="102.003" cy="24.4321" r="1.2216" fill="#524971"/>
<circle cx="111.166" cy="24.4321" r="1.2216" fill="#524971"/>
<circle cx="1.2216" cy="36.0373" r="1.2216" fill="#524971"/>
<circle cx="10.3837" cy="36.0373" r="1.2216" fill="#524971"/>
<circle cx="19.5458" cy="36.0373" r="1.2216" fill="#524971"/>
<circle cx="28.7074" cy="36.0373" r="1.2216" fill="#524971"/>
<circle cx="37.87" cy="36.0373" r="1.2216" fill="#524971"/>
<circle cx="47.0322" cy="36.0373" r="1.2216" fill="#524971"/>
<circle cx="56.1933" cy="36.0373" r="1.2216" fill="#524971"/>
<circle cx="65.3564" cy="36.0373" r="1.2216" fill="#524971"/>
<circle cx="74.518" cy="36.0373" r="1.2216" fill="#524971"/>
<circle cx="83.6801" cy="36.0373" r="1.2216" fill="#524971"/>
<circle cx="92.8422" cy="36.0373" r="1.2216" fill="#524971"/>
<circle cx="102.003" cy="36.0373" r="1.2216" fill="#524971"/>
<circle cx="111.166" cy="36.0373" r="1.2216" fill="#524971"/>
<circle cx="1.2216" cy="47.6425" r="1.2216" fill="#524971"/>
<circle cx="10.3837" cy="47.6425" r="1.2216" fill="#524971"/>
<circle cx="19.5458" cy="47.6425" r="1.2216" fill="#524971"/>
<circle cx="28.7074" cy="47.6425" r="1.2216" fill="#524971"/>
<circle cx="37.87" cy="47.6425" r="1.2216" fill="#524971"/>
<circle cx="47.0322" cy="47.6425" r="1.2216" fill="#524971"/>
<circle cx="56.1933" cy="47.6425" r="1.2216" fill="#524971"/>
<circle cx="65.3564" cy="47.6425" r="1.2216" fill="#524971"/>
<circle cx="74.518" cy="47.6425" r="1.2216" fill="#524971"/>
<circle cx="83.6801" cy="47.6425" r="1.2216" fill="#524971"/>
<circle cx="92.8422" cy="47.6425" r="1.2216" fill="#524971"/>
<circle cx="102.003" cy="47.6425" r="1.2216" fill="#524971"/>
<circle cx="111.166" cy="47.6425" r="1.2216" fill="#524971"/>
<circle cx="1.2216" cy="59.2477" r="1.2216" fill="#524971"/>
<circle cx="10.3837" cy="59.2477" r="1.2216" fill="#524971"/>
<circle cx="19.5458" cy="59.2477" r="1.2216" fill="#524971"/>
<circle cx="28.7074" cy="59.2477" r="1.2216" fill="#524971"/>
<circle cx="37.87" cy="59.2477" r="1.2216" fill="#524971"/>
<circle cx="47.0322" cy="59.2477" r="1.2216" fill="#524971"/>
<circle cx="56.1933" cy="59.2477" r="1.2216" fill="#524971"/>
<circle cx="65.3564" cy="59.2477" r="1.2216" fill="#524971"/>
<circle cx="74.518" cy="59.2477" r="1.2216" fill="#524971"/>
<circle cx="83.6801" cy="59.2477" r="1.2216" fill="#524971"/>
<circle cx="92.8422" cy="59.2477" r="1.2216" fill="#524971"/>
<circle cx="102.003" cy="59.2477" r="1.2216" fill="#524971"/>
<circle cx="111.166" cy="59.2477" r="1.2216" fill="#524971"/>
<circle cx="1.2216" cy="70.8531" r="1.2216" fill="#524971"/>
<circle cx="10.3837" cy="70.8531" r="1.2216" fill="#524971"/>
<circle cx="19.5458" cy="70.8531" r="1.2216" fill="#524971"/>
<circle cx="28.7074" cy="70.8531" r="1.2216" fill="#524971"/>
<circle cx="37.87" cy="70.8531" r="1.2216" fill="#524971"/>
<circle cx="47.0322" cy="70.8531" r="1.2216" fill="#524971"/>
<circle cx="56.1933" cy="70.8531" r="1.2216" fill="#524971"/>
<circle cx="65.3564" cy="70.8531" r="1.2216" fill="#524971"/>
<circle cx="74.518" cy="70.8531" r="1.2216" fill="#524971"/>
<circle cx="83.6801" cy="70.8531" r="1.2216" fill="#524971"/>
<circle cx="92.8422" cy="70.8531" r="1.2216" fill="#524971"/>
<circle cx="102.003" cy="70.8531" r="1.2216" fill="#524971"/>
<circle cx="111.166" cy="70.8531" r="1.2216" fill="#524971"/>
<circle cx="1.2216" cy="82.4584" r="1.2216" fill="#524971"/>
<circle cx="10.3837" cy="82.4581" r="1.2216" fill="#524971"/>
<circle cx="19.5458" cy="82.4581" r="1.2216" fill="#524971"/>
<circle cx="28.7074" cy="82.4581" r="1.2216" fill="#524971"/>
<circle cx="37.87" cy="82.4581" r="1.2216" fill="#524971"/>
<circle cx="47.0322" cy="82.4581" r="1.2216" fill="#524971"/>
<circle cx="56.1933" cy="82.4581" r="1.2216" fill="#524971"/>
<circle cx="65.3564" cy="82.4581" r="1.2216" fill="#524971"/>
<circle cx="74.518" cy="82.4581" r="1.2216" fill="#524971"/>
<circle cx="83.6801" cy="82.4581" r="1.2216" fill="#524971"/>
<circle cx="92.8422" cy="82.4581" r="1.2216" fill="#524971"/>
<circle cx="102.003" cy="82.4581" r="1.2216" fill="#524971"/>
<circle cx="111.166" cy="82.4581" r="1.2216" fill="#524971"/>
<circle cx="1.2216" cy="94.0635" r="1.2216" fill="#524971"/>
<circle cx="10.3837" cy="94.0635" r="1.2216" fill="#524971"/>
<circle cx="19.5458" cy="94.0635" r="1.2216" fill="#524971"/>
<circle cx="28.7074" cy="94.0635" r="1.2216" fill="#524971"/>
<circle cx="37.87" cy="94.0635" r="1.2216" fill="#524971"/>
<circle cx="47.0322" cy="94.0635" r="1.2216" fill="#524971"/>
<circle cx="56.1933" cy="94.0635" r="1.2216" fill="#524971"/>
<circle cx="65.3564" cy="94.0635" r="1.2216" fill="#524971"/>
<circle cx="74.518" cy="94.0635" r="1.2216" fill="#524971"/>
<circle cx="83.6801" cy="94.0635" r="1.2216" fill="#524971"/>
<circle cx="92.8422" cy="94.0635" r="1.2216" fill="#524971"/>
<circle cx="102.003" cy="94.0635" r="1.2216" fill="#524971"/>
<circle cx="111.166" cy="94.0635" r="1.2216" fill="#524971"/>
<circle cx="1.2216" cy="105.669" r="1.2216" fill="#524971"/>
<circle cx="10.3837" cy="105.669" r="1.2216" fill="#524971"/>
<circle cx="19.5458" cy="105.669" r="1.2216" fill="#524971"/>
<circle cx="28.7074" cy="105.669" r="1.2216" fill="#524971"/>
<circle cx="37.87" cy="105.669" r="1.2216" fill="#524971"/>
<circle cx="47.0322" cy="105.669" r="1.2216" fill="#524971"/>
<circle cx="56.1933" cy="105.669" r="1.2216" fill="#524971"/>
<circle cx="65.3564" cy="105.669" r="1.2216" fill="#524971"/>
<circle cx="74.518" cy="105.669" r="1.2216" fill="#524971"/>
<circle cx="83.6801" cy="105.669" r="1.2216" fill="#524971"/>
<circle cx="92.8422" cy="105.669" r="1.2216" fill="#524971"/>
<circle cx="102.003" cy="105.669" r="1.2216" fill="#524971"/>
<circle cx="111.166" cy="105.669" r="1.2216" fill="#524971"/>
<circle cx="1.2216" cy="117.274" r="1.2216" fill="#524971"/>
<circle cx="10.3837" cy="117.274" r="1.2216" fill="#524971"/>
<circle cx="19.5458" cy="117.274" r="1.2216" fill="#524971"/>
<circle cx="28.7074" cy="117.274" r="1.2216" fill="#524971"/>
<circle cx="37.87" cy="117.274" r="1.2216" fill="#524971"/>
<circle cx="47.0322" cy="117.274" r="1.2216" fill="#524971"/>
<circle cx="56.1933" cy="117.274" r="1.2216" fill="#524971"/>
<circle cx="65.3564" cy="117.274" r="1.2216" fill="#524971"/>
<circle cx="74.518" cy="117.274" r="1.2216" fill="#524971"/>
<circle cx="83.6801" cy="117.274" r="1.2216" fill="#524971"/>
<circle cx="92.8422" cy="117.274" r="1.2216" fill="#524971"/>
<circle cx="102.003" cy="117.274" r="1.2216" fill="#524971"/>
<circle cx="111.166" cy="117.274" r="1.2216" fill="#524971"/>
<circle cx="1.2216" cy="128.879" r="1.2216" fill="#524971"/>
<circle cx="10.3837" cy="128.879" r="1.2216" fill="#524971"/>
<circle cx="19.5458" cy="128.879" r="1.2216" fill="#524971"/>
<circle cx="28.7074" cy="128.879" r="1.2216" fill="#524971"/>
<circle cx="37.87" cy="128.879" r="1.2216" fill="#524971"/>
<circle cx="47.0322" cy="128.879" r="1.2216" fill="#524971"/>
<circle cx="56.1933" cy="128.879" r="1.2216" fill="#524971"/>
<circle cx="65.3564" cy="128.879" r="1.2216" fill="#524971"/>
<circle cx="74.518" cy="128.879" r="1.2216" fill="#524971"/>
<circle cx="83.6801" cy="128.879" r="1.2216" fill="#524971"/>
<circle cx="92.8422" cy="128.879" r="1.2216" fill="#524971"/>
<circle cx="102.003" cy="128.879" r="1.2216" fill="#524971"/>
<circle cx="111.166" cy="128.879" r="1.2216" fill="#524971"/>
<path d="M15.8813 127.657H31.7622L15.8813 111.777V127.657Z" fill="#86EC88"/>
<path d="M32.3733 127.047L16.7979 111.166H18.0195L32.3733 125.52V127.047Z" fill="#86EC88"/>
<path d="M32.3728 123.382L20.1567 111.166H21.4097L32.3728 121.855V123.382Z" fill="#86EC88"/>
<path d="M32.3732 119.717L23.5166 111.166H24.7382L32.3732 118.495V119.717Z" fill="#86EC88"/>
<path d="M26.8755 111.166L32.3727 116.358V114.831L28.4025 111.166H26.8755Z" fill="#86EC88"/>
<path d="M32.3724 112.998L30.54 111.166H32.3724V112.998Z" fill="#86EC88"/>
<path d="M91.6206 4.27557C91.6206 9.67296 95.996 14.0484 101.393 14.0484L103.837 4.27557H91.6206Z" fill="#FBBD00"/>
<path d="M101.393 43.502H100.565V20.9772C100.565 17.5196 99.1825 14.2037 96.7209 11.7588C94.2593 9.31395 90.9206 7.94043 87.4394 7.94043H39.3907C37.667 7.94043 35.9601 8.27763 34.3676 8.93278C32.7751 9.58794 31.3281 10.5482 30.1092 11.7588C28.8903 12.9694 27.9235 14.4065 27.2638 15.9882C26.6042 17.5699 26.2647 19.2651 26.2646 20.9772V144.55C26.2646 146.262 26.6042 147.957 27.2638 149.539C27.9234 151.121 28.8903 152.558 30.1092 153.769C31.328 154.979 32.775 155.939 34.3676 156.595C35.9601 157.25 37.6669 157.587 39.3907 157.587H87.4393C90.9206 157.587 94.2592 156.213 96.7208 153.769C99.1825 151.324 100.565 148.008 100.565 144.55V59.5356H101.393V43.502Z" fill="#3F3D56"/>
<path d="M87.9382 11.6052H81.6742C81.9623 12.3049 82.0722 13.064 81.9944 13.8156C81.9166 14.5673 81.6533 15.2884 81.2279 15.9156C80.8024 16.5427 80.2278 17.0566 79.5547 17.4119C78.8816 17.7672 78.1306 17.9531 77.3678 17.9532H49.8762C49.1134 17.9531 48.3624 17.7672 47.6893 17.4119C47.0161 17.0566 46.4415 16.5427 46.0161 15.9156C45.5907 15.2884 45.3274 14.5673 45.2496 13.8156C45.1718 13.064 45.2817 12.3049 45.5698 11.6052H39.7192C37.1227 11.6052 34.6326 12.627 32.7966 14.4458C30.9607 16.2647 29.9292 18.7315 29.9292 21.3037V144.224C29.9292 145.497 30.1824 146.758 30.6744 147.935C31.1664 149.112 31.8875 150.181 32.7966 151.081C33.7057 151.982 34.7849 152.696 35.9727 153.184C37.1605 153.671 38.4335 153.922 39.7192 153.922H87.9382C89.2239 153.922 90.4969 153.671 91.6847 153.184C92.8725 152.696 93.9517 151.982 94.8608 151.081C95.7699 150.181 96.491 149.112 96.983 147.935C97.475 146.758 97.7282 145.497 97.7282 144.224V21.3037C97.7282 20.0301 97.475 18.7689 96.983 17.5922C96.491 16.4156 95.7699 15.3464 94.8608 14.4458C93.9517 13.5453 92.8724 12.8309 91.6847 12.3435C90.4969 11.8561 89.2238 11.6052 87.9382 11.6052Z" fill="white"/>
<path d="M63.5236 34.2049H35.4268V81.8474H63.5236V34.2049Z" fill="#E6E6E6"/>
<path d="M91.6201 85.5123H68.4097V139.874H91.6201V85.5123Z" fill="#E6E6E6"/>
<path d="M92.2309 34.2049H68.4097V47.6425H92.2309V34.2049Z" fill="#E6E6E6"/>
<path d="M92.2309 51.3073H68.4097V65.3558H92.2309V51.3073Z" fill="#E6E6E6"/>
<path d="M92.2309 69.0205H68.4097V81.8473H92.2309V69.0205Z" fill="#E6E6E6"/>
<path d="M63.5236 85.5123H35.4268V106.28H63.5236V85.5123Z" fill="#18C5D9"/>
<path d="M63.5236 110.555H35.4268V139.874H63.5236V110.555Z" fill="#E6E6E6"/>
</svg>
