<svg width="115" height="112" viewBox="0 0 115 112" fill="none" xmlns="http://www.w3.org/2000/svg">
<circle cx="12.603" cy="1.05023" r="1.05023" fill="#524971"/>
<circle cx="20.4799" cy="1.05023" r="1.05023" fill="#524971"/>
<circle cx="28.3564" cy="1.05023" r="1.05023" fill="#524971"/>
<circle cx="36.2333" cy="1.05023" r="1.05023" fill="#524971"/>
<circle cx="44.1098" cy="1.05023" r="1.05023" fill="#524971"/>
<circle cx="51.9868" cy="1.05023" r="1.05023" fill="#524971"/>
<circle cx="59.8632" cy="1.05023" r="1.05023" fill="#524971"/>
<circle cx="67.7402" cy="1.05023" r="1.05023" fill="#524971"/>
<circle cx="75.6166" cy="1.05023" r="1.05023" fill="#524971"/>
<circle cx="83.4936" cy="1.05023" r="1.05023" fill="#524971"/>
<circle cx="91.3701" cy="1.05023" r="1.05023" fill="#524971"/>
<circle cx="99.247" cy="1.05023" r="1.05023" fill="#524971"/>
<circle cx="107.123" cy="1.05023" r="1.05023" fill="#524971"/>
<circle cx="12.603" cy="11.0274" r="1.05023" fill="#524971"/>
<circle cx="20.4799" cy="11.0274" r="1.05023" fill="#524971"/>
<circle cx="28.3564" cy="11.0274" r="1.05023" fill="#524971"/>
<circle cx="36.2333" cy="11.0274" r="1.05023" fill="#524971"/>
<circle cx="44.1098" cy="11.0274" r="1.05023" fill="#524971"/>
<circle cx="51.9868" cy="11.0274" r="1.05023" fill="#524971"/>
<circle cx="59.8632" cy="11.0274" r="1.05023" fill="#524971"/>
<circle cx="67.7402" cy="11.0274" r="1.05023" fill="#524971"/>
<circle cx="75.6166" cy="11.0274" r="1.05023" fill="#524971"/>
<circle cx="83.4936" cy="11.0274" r="1.05023" fill="#524971"/>
<circle cx="91.3701" cy="11.0274" r="1.05023" fill="#524971"/>
<circle cx="99.247" cy="11.0274" r="1.05023" fill="#524971"/>
<circle cx="107.123" cy="11.0274" r="1.05023" fill="#524971"/>
<circle cx="12.603" cy="21.0046" r="1.05023" fill="#524971"/>
<circle cx="20.4799" cy="21.0046" r="1.05023" fill="#524971"/>
<circle cx="28.3564" cy="21.0046" r="1.05023" fill="#524971"/>
<circle cx="36.2333" cy="21.0046" r="1.05023" fill="#524971"/>
<circle cx="44.1098" cy="21.0046" r="1.05023" fill="#524971"/>
<circle cx="51.9868" cy="21.0046" r="1.05023" fill="#524971"/>
<circle cx="59.8632" cy="21.0046" r="1.05023" fill="#524971"/>
<circle cx="67.7402" cy="21.0046" r="1.05023" fill="#524971"/>
<circle cx="75.6166" cy="21.0046" r="1.05023" fill="#524971"/>
<circle cx="83.4936" cy="21.0046" r="1.05023" fill="#524971"/>
<circle cx="91.3701" cy="21.0046" r="1.05023" fill="#524971"/>
<circle cx="99.247" cy="21.0046" r="1.05023" fill="#524971"/>
<circle cx="107.123" cy="21.0046" r="1.05023" fill="#524971"/>
<circle cx="12.603" cy="30.9817" r="1.05023" fill="#524971"/>
<circle cx="20.4799" cy="30.9817" r="1.05023" fill="#524971"/>
<circle cx="28.3564" cy="30.9817" r="1.05023" fill="#524971"/>
<circle cx="36.2333" cy="30.9817" r="1.05023" fill="#524971"/>
<circle cx="44.1098" cy="30.9817" r="1.05023" fill="#524971"/>
<circle cx="51.9868" cy="30.9817" r="1.05023" fill="#524971"/>
<circle cx="59.8632" cy="30.9817" r="1.05023" fill="#524971"/>
<circle cx="67.7402" cy="30.9817" r="1.05023" fill="#524971"/>
<circle cx="75.6166" cy="30.9817" r="1.05023" fill="#524971"/>
<circle cx="83.4936" cy="30.9817" r="1.05023" fill="#524971"/>
<circle cx="91.3701" cy="30.9817" r="1.05023" fill="#524971"/>
<circle cx="99.247" cy="30.9817" r="1.05023" fill="#524971"/>
<circle cx="107.123" cy="30.9817" r="1.05023" fill="#524971"/>
<circle cx="12.603" cy="40.9589" r="1.05023" fill="#524971"/>
<circle cx="20.4799" cy="40.9589" r="1.05023" fill="#524971"/>
<circle cx="28.3564" cy="40.9589" r="1.05023" fill="#524971"/>
<circle cx="36.2333" cy="40.9589" r="1.05023" fill="#524971"/>
<circle cx="44.1098" cy="40.9589" r="1.05023" fill="#524971"/>
<circle cx="51.9868" cy="40.9589" r="1.05023" fill="#524971"/>
<circle cx="59.8632" cy="40.9589" r="1.05023" fill="#524971"/>
<circle cx="67.7402" cy="40.9589" r="1.05023" fill="#524971"/>
<circle cx="75.6166" cy="40.9589" r="1.05023" fill="#524971"/>
<circle cx="83.4936" cy="40.9589" r="1.05023" fill="#524971"/>
<circle cx="91.3701" cy="40.9589" r="1.05023" fill="#524971"/>
<circle cx="99.247" cy="40.9589" r="1.05023" fill="#524971"/>
<circle cx="107.123" cy="40.9589" r="1.05023" fill="#524971"/>
<circle cx="12.603" cy="50.9361" r="1.05023" fill="#524971"/>
<circle cx="20.4799" cy="50.9361" r="1.05023" fill="#524971"/>
<circle cx="28.3564" cy="50.9361" r="1.05023" fill="#524971"/>
<circle cx="36.2333" cy="50.9361" r="1.05023" fill="#524971"/>
<circle cx="44.1098" cy="50.9361" r="1.05023" fill="#524971"/>
<circle cx="51.9868" cy="50.9361" r="1.05023" fill="#524971"/>
<circle cx="59.8632" cy="50.9361" r="1.05023" fill="#524971"/>
<circle cx="67.7402" cy="50.9361" r="1.05023" fill="#524971"/>
<circle cx="75.6166" cy="50.9361" r="1.05023" fill="#524971"/>
<circle cx="83.4936" cy="50.9361" r="1.05023" fill="#524971"/>
<circle cx="91.3701" cy="50.9361" r="1.05023" fill="#524971"/>
<circle cx="99.247" cy="50.9361" r="1.05023" fill="#524971"/>
<circle cx="107.123" cy="50.9361" r="1.05023" fill="#524971"/>
<circle cx="12.603" cy="60.9133" r="1.05023" fill="#524971"/>
<circle cx="20.4799" cy="60.9133" r="1.05023" fill="#524971"/>
<circle cx="28.3564" cy="60.9133" r="1.05023" fill="#524971"/>
<circle cx="36.2333" cy="60.9133" r="1.05023" fill="#524971"/>
<circle cx="44.1098" cy="60.9133" r="1.05023" fill="#524971"/>
<circle cx="51.9868" cy="60.9133" r="1.05023" fill="#524971"/>
<circle cx="59.8632" cy="60.9133" r="1.05023" fill="#524971"/>
<circle cx="67.7402" cy="60.9133" r="1.05023" fill="#524971"/>
<circle cx="75.6166" cy="60.9133" r="1.05023" fill="#524971"/>
<circle cx="83.4936" cy="60.9133" r="1.05023" fill="#524971"/>
<circle cx="91.3701" cy="60.9133" r="1.05023" fill="#524971"/>
<circle cx="99.247" cy="60.9133" r="1.05023" fill="#524971"/>
<circle cx="107.123" cy="60.9133" r="1.05023" fill="#524971"/>
<circle cx="12.603" cy="70.8904" r="1.05023" fill="#524971"/>
<circle cx="20.4799" cy="70.8904" r="1.05023" fill="#524971"/>
<circle cx="28.3564" cy="70.8904" r="1.05023" fill="#524971"/>
<circle cx="36.2333" cy="70.8904" r="1.05023" fill="#524971"/>
<circle cx="44.1098" cy="70.8904" r="1.05023" fill="#524971"/>
<circle cx="51.9868" cy="70.8904" r="1.05023" fill="#524971"/>
<circle cx="59.8632" cy="70.8904" r="1.05023" fill="#524971"/>
<circle cx="67.7402" cy="70.8904" r="1.05023" fill="#524971"/>
<circle cx="75.6166" cy="70.8904" r="1.05023" fill="#524971"/>
<circle cx="83.4936" cy="70.8904" r="1.05023" fill="#524971"/>
<circle cx="91.3701" cy="70.8904" r="1.05023" fill="#524971"/>
<circle cx="99.247" cy="70.8904" r="1.05023" fill="#524971"/>
<circle cx="107.123" cy="70.8904" r="1.05023" fill="#524971"/>
<circle cx="12.603" cy="80.8676" r="1.05023" fill="#524971"/>
<circle cx="20.4799" cy="80.8676" r="1.05023" fill="#524971"/>
<circle cx="28.3564" cy="80.8676" r="1.05023" fill="#524971"/>
<circle cx="36.2333" cy="80.8676" r="1.05023" fill="#524971"/>
<circle cx="44.1098" cy="80.8676" r="1.05023" fill="#524971"/>
<circle cx="51.9868" cy="80.8676" r="1.05023" fill="#524971"/>
<circle cx="59.8632" cy="80.8676" r="1.05023" fill="#524971"/>
<circle cx="67.7402" cy="80.8676" r="1.05023" fill="#524971"/>
<circle cx="75.6166" cy="80.8676" r="1.05023" fill="#524971"/>
<circle cx="83.4936" cy="80.8676" r="1.05023" fill="#524971"/>
<circle cx="91.3701" cy="80.8676" r="1.05023" fill="#524971"/>
<circle cx="99.247" cy="80.8676" r="1.05023" fill="#524971"/>
<circle cx="107.123" cy="80.8676" r="1.05023" fill="#524971"/>
<circle cx="12.603" cy="90.8447" r="1.05023" fill="#524971"/>
<circle cx="20.4799" cy="90.8447" r="1.05023" fill="#524971"/>
<circle cx="28.3564" cy="90.8447" r="1.05023" fill="#524971"/>
<circle cx="36.2333" cy="90.8447" r="1.05023" fill="#524971"/>
<circle cx="44.1098" cy="90.8447" r="1.05023" fill="#524971"/>
<circle cx="51.9868" cy="90.8447" r="1.05023" fill="#524971"/>
<circle cx="59.8632" cy="90.8447" r="1.05023" fill="#524971"/>
<circle cx="67.7402" cy="90.8447" r="1.05023" fill="#524971"/>
<circle cx="75.6166" cy="90.8447" r="1.05023" fill="#524971"/>
<circle cx="83.4936" cy="90.8447" r="1.05023" fill="#524971"/>
<circle cx="91.3701" cy="90.8447" r="1.05023" fill="#524971"/>
<circle cx="99.247" cy="90.8447" r="1.05023" fill="#524971"/>
<circle cx="107.123" cy="90.8447" r="1.05023" fill="#524971"/>
<circle cx="12.603" cy="100.822" r="1.05023" fill="#524971"/>
<circle cx="20.4799" cy="100.822" r="1.05023" fill="#524971"/>
<circle cx="28.3564" cy="100.822" r="1.05023" fill="#524971"/>
<circle cx="36.2333" cy="100.822" r="1.05023" fill="#524971"/>
<circle cx="44.1098" cy="100.822" r="1.05023" fill="#524971"/>
<circle cx="51.9868" cy="100.822" r="1.05023" fill="#524971"/>
<circle cx="59.8632" cy="100.822" r="1.05023" fill="#524971"/>
<circle cx="67.7402" cy="100.822" r="1.05023" fill="#524971"/>
<circle cx="75.6166" cy="100.822" r="1.05023" fill="#524971"/>
<circle cx="83.4936" cy="100.822" r="1.05023" fill="#524971"/>
<circle cx="91.3701" cy="100.822" r="1.05023" fill="#524971"/>
<circle cx="99.247" cy="100.822" r="1.05023" fill="#524971"/>
<circle cx="107.123" cy="100.822" r="1.05023" fill="#524971"/>
<circle cx="12.603" cy="110.799" r="1.05023" fill="#524971"/>
<circle cx="20.4799" cy="110.799" r="1.05023" fill="#524971"/>
<circle cx="28.3564" cy="110.799" r="1.05023" fill="#524971"/>
<circle cx="36.2333" cy="110.799" r="1.05023" fill="#524971"/>
<circle cx="44.1098" cy="110.799" r="1.05023" fill="#524971"/>
<circle cx="51.9868" cy="110.799" r="1.05023" fill="#524971"/>
<circle cx="59.8632" cy="110.799" r="1.05023" fill="#524971"/>
<circle cx="67.7402" cy="110.799" r="1.05023" fill="#524971"/>
<circle cx="75.6166" cy="110.799" r="1.05023" fill="#524971"/>
<circle cx="83.4936" cy="110.799" r="1.05023" fill="#524971"/>
<circle cx="91.3701" cy="110.799" r="1.05023" fill="#524971"/>
<circle cx="99.247" cy="110.799" r="1.05023" fill="#524971"/>
<circle cx="107.123" cy="110.799" r="1.05023" fill="#524971"/>
<path d="M64.8506 27.9199C69.6298 31.2067 76.1685 29.9969 79.4552 25.2178L62.1485 13.3153C58.8617 18.0944 60.0715 24.6331 64.8506 27.9199Z" fill="#FF4D55"/>
<path d="M66.636 25.3239C69.9814 27.6247 74.5585 26.7778 76.8592 23.4324L64.7445 15.1007C62.4437 18.4461 63.2906 23.0232 66.636 25.3239Z" fill="#1C1046"/>
<path d="M17.3286 83.4932C17.3286 88.1334 21.0902 91.895 25.7304 91.895L27.8309 83.4932H17.3286Z" fill="#FBBD00"/>
<circle cx="59.6004" cy="35.9703" r="17.0662" fill="#18C5D9"/>
<path fill-rule="evenodd" clip-rule="evenodd" d="M56.3529 42.494C63.6518 42.494 67.6229 36.348 67.6229 30.9695V30.4208C68.3725 29.8369 69.0247 29.1327 69.5541 28.3355C68.8344 28.6556 68.0766 28.877 67.3002 28.994C68.0985 28.4815 68.7037 27.7079 69.0174 26.799C68.2421 27.2418 67.4117 27.5752 66.5489 27.7903C66.1862 27.3715 65.7399 27.037 65.2402 26.8092C64.7405 26.5815 64.1989 26.4657 63.6518 26.4698C62.6036 26.486 61.6027 26.9191 60.8614 27.6771C60.1201 28.4352 59.6967 29.4586 59.6808 30.5305C59.6563 30.8277 59.6929 31.1267 59.7881 31.4085C58.2086 31.3306 56.6637 30.9084 55.2568 30.1702C53.8499 29.432 52.6136 28.3949 51.6306 27.1283C51.2774 27.7638 51.0925 28.4825 51.094 29.2135C51.1082 29.8768 51.2703 30.5281 51.5679 31.1177C51.8655 31.7073 52.2907 32.2196 52.8112 32.6158C52.166 32.6025 51.5361 32.413 50.9866 32.067V32.067C50.9856 33.007 51.3073 33.9175 51.8958 34.6397C52.4843 35.3618 53.3021 35.8496 54.2064 36.0181C53.8569 36.1144 53.4944 36.1515 53.1332 36.1278C52.878 36.1454 52.622 36.108 52.3819 36.0181C52.6443 36.8314 53.146 37.542 53.8184 38.0528C54.4908 38.5635 55.301 38.8495 56.1383 38.8716C54.7289 39.9992 52.9942 40.6179 51.2048 40.6311C50.8779 40.6494 50.5504 40.6123 50.2354 40.5214C52.0114 41.8401 54.1583 42.5334 56.3529 42.4969" fill="white"/>
<circle cx="97.9339" cy="70.1027" r="17.0662" fill="#18C5D9"/>
<path fill-rule="evenodd" clip-rule="evenodd" d="M98.7331 81.2208V70.6426H101.901L102.354 66.5147H98.7331V63.935C98.7331 62.7742 99.0752 61.8707 100.544 61.8707H102.467V58.1308C102.015 58.1308 100.883 58.0009 99.6384 58.0009C96.9229 58.0009 94.9993 59.9358 94.9993 63.4189V66.5154H91.8306V70.6426H94.9988V81.2208H98.7331Z" fill="white"/>
<circle cx="17.0662" cy="70.1027" r="17.0662" fill="#18C5D9"/>
<path fill-rule="evenodd" clip-rule="evenodd" d="M16.7055 63.1957C17.7315 63.1624 18.7589 63.1872 19.7812 63.2698C20.2771 63.2645 20.7697 63.3397 21.2334 63.4915C21.8733 63.7493 22.3875 64.1938 22.6857 64.747C22.8613 65.1479 22.9483 65.5738 22.9422 66.0024C22.9422 66.6672 23.0278 66.8889 23.0278 68.6615C23.0663 69.5485 23.0377 70.4368 22.9422 71.3206C22.9483 71.7493 22.8613 72.1751 22.6857 72.576C22.3875 73.1292 21.8733 73.5737 21.2334 73.8315C20.7697 73.9833 20.2771 74.0585 19.7812 74.0533C19.0123 74.0533 18.7558 74.1273 16.7055 74.1273C15.6794 74.1606 14.652 74.1358 13.6297 74.0533C13.1338 74.0585 12.6412 73.9833 12.1775 73.8315C11.5376 73.5737 11.0234 73.1292 10.7252 72.576C10.5494 72.1751 10.4623 71.7493 10.4682 71.3206C10.4682 70.6558 10.3825 70.4341 10.3825 68.6615C10.3441 67.7745 10.3727 66.8862 10.4682 66.0024C10.4621 65.5738 10.5491 65.1479 10.7247 64.747C10.8738 64.473 11.0761 64.2231 11.3228 64.0081C11.5231 63.7498 11.8277 63.5655 12.1769 63.491C12.6408 63.3392 13.1336 63.2639 13.6297 63.2693C14.652 63.1869 15.6794 63.1623 16.7055 63.1957V63.1957ZM16.7055 62.0138C15.6509 61.9814 14.595 62.0061 13.544 62.0879C12.9019 62.0866 12.2649 62.1867 11.6645 62.3832C11.1459 62.5293 10.6766 62.7828 10.2974 63.1216C9.90548 63.4495 9.61227 63.8552 9.4433 64.3035C9.17507 64.8122 9.05765 65.3706 9.10167 65.9284C9.00706 66.837 8.97844 67.7498 9.01598 68.6615C8.97846 69.573 9.00708 70.4857 9.10167 71.3942C9.10015 71.9493 9.21593 72.4999 9.4433 73.0191C9.61227 73.4673 9.90548 73.8731 10.2974 74.2009C10.6766 74.5397 11.1459 74.7932 11.6645 74.9393C12.2649 75.1359 12.9019 75.2359 13.544 75.2346C14.595 75.3166 15.6509 75.3415 16.7055 75.3092C17.7598 75.3416 18.8156 75.3169 19.8664 75.2351C20.5085 75.2364 21.1454 75.1363 21.7459 74.9398C22.2605 74.7865 22.7279 74.5339 23.1127 74.2012C23.4976 73.8685 23.7898 73.4644 23.9671 73.0195C24.1944 72.5004 24.3102 71.9497 24.3087 71.3947C24.3087 70.6558 24.3949 70.4341 24.3949 68.6615C24.4324 67.75 24.4038 66.8373 24.3092 65.9288C24.3107 65.3737 24.195 64.8231 23.9676 64.3039C23.7986 63.8557 23.5054 63.4499 23.1135 63.1221C22.7342 62.783 22.2647 62.5294 21.7459 62.3832C21.1454 62.1867 20.5085 62.0866 19.8664 62.0879C18.8156 62.0061 17.7598 61.9814 16.7055 62.0138V62.0138ZM16.7055 65.2636C16.1869 65.2561 15.672 65.3389 15.1912 65.5071C14.7105 65.6752 14.2737 65.9252 13.907 66.2422C13.5403 66.5592 13.2511 66.9368 13.0567 67.3524C12.8622 67.768 12.7664 68.2132 12.775 68.6615C12.7751 69.3334 13.0057 69.9902 13.4376 70.5488C13.8694 71.1075 14.4832 71.5429 15.2013 71.7999C15.9193 72.057 16.7094 72.1243 17.4717 71.9932C18.234 71.8621 18.9342 71.5385 19.4837 71.0634C20.0333 70.5883 20.4076 69.9829 20.5592 69.324C20.7109 68.665 20.6331 67.9819 20.3357 67.3611C20.0384 66.7403 19.5347 66.2097 18.8886 65.8364C18.2424 65.463 17.4827 65.2637 16.7055 65.2636V65.2636ZM16.7055 70.8771C16.3672 70.8825 16.0311 70.8289 15.7173 70.7195C15.4035 70.61 15.1184 70.4471 14.8792 70.2402C14.6399 70.0334 14.4513 69.787 14.3246 69.5158C14.198 69.2445 14.1359 68.954 14.1421 68.6615C14.1359 68.369 14.1979 68.0784 14.3245 67.8071C14.4511 67.5358 14.6397 67.2893 14.879 67.0825C15.1182 66.8756 15.4033 66.7126 15.7171 66.6031C16.031 66.4937 16.3671 66.44 16.7055 66.4455C17.0437 66.4401 17.3798 66.4938 17.6936 66.6033C18.0073 66.7127 18.2924 66.8758 18.5316 67.0826C18.7708 67.2895 18.9594 67.5359 19.0859 67.8072C19.2125 68.0785 19.2745 68.369 19.2682 68.6615C19.2744 68.9539 19.2124 69.2444 19.0858 69.5157C18.9592 69.7869 18.7706 70.0333 18.5314 70.2401C18.2922 70.4469 18.0072 70.6099 17.6935 70.7193C17.3797 70.8288 17.0437 70.8824 16.7055 70.8771V70.8771ZM20.8061 64.3035C20.6203 64.3035 20.4386 64.3511 20.284 64.4404C20.1295 64.5297 20.009 64.6566 19.9379 64.805C19.8668 64.9535 19.8482 65.1168 19.8844 65.2744C19.9207 65.432 20.0102 65.5768 20.1416 65.6904C20.273 65.804 20.4405 65.8814 20.6228 65.9127C20.8051 65.9441 20.994 65.928 21.1658 65.8665C21.3375 65.805 21.4843 65.7009 21.5875 65.5673C21.6908 65.4337 21.7459 65.2766 21.7459 65.1159C21.7437 64.901 21.644 64.6954 21.4683 64.5435C21.2925 64.3915 21.0547 64.3053 20.8061 64.3035" fill="white"/>
</svg>
