<svg width="115" height="424" viewBox="0 0 115 424" fill="none" xmlns="http://www.w3.org/2000/svg">
<circle cx="12.603" cy="1.05023" r="1.05023" fill="#524971"/>
<circle cx="20.4799" cy="1.05023" r="1.05023" fill="#524971"/>
<circle cx="28.3564" cy="1.05023" r="1.05023" fill="#524971"/>
<circle cx="36.2333" cy="1.05023" r="1.05023" fill="#524971"/>
<circle cx="44.1098" cy="1.05023" r="1.05023" fill="#524971"/>
<circle cx="51.9868" cy="1.05023" r="1.05023" fill="#524971"/>
<circle cx="59.8632" cy="1.05023" r="1.05023" fill="#524971"/>
<circle cx="67.7402" cy="1.05023" r="1.05023" fill="#524971"/>
<circle cx="75.6166" cy="1.05023" r="1.05023" fill="#524971"/>
<circle cx="83.4936" cy="1.05023" r="1.05023" fill="#524971"/>
<circle cx="91.3701" cy="1.05023" r="1.05023" fill="#524971"/>
<circle cx="99.247" cy="1.05023" r="1.05023" fill="#524971"/>
<circle cx="107.123" cy="1.05023" r="1.05023" fill="#524971"/>
<circle cx="12.603" cy="11.0274" r="1.05023" fill="#524971"/>
<circle cx="20.4799" cy="11.0274" r="1.05023" fill="#524971"/>
<circle cx="28.3564" cy="11.0274" r="1.05023" fill="#524971"/>
<circle cx="36.2333" cy="11.0274" r="1.05023" fill="#524971"/>
<circle cx="44.1098" cy="11.0274" r="1.05023" fill="#524971"/>
<circle cx="51.9868" cy="11.0274" r="1.05023" fill="#524971"/>
<circle cx="59.8632" cy="11.0274" r="1.05023" fill="#524971"/>
<circle cx="67.7402" cy="11.0274" r="1.05023" fill="#524971"/>
<circle cx="75.6166" cy="11.0274" r="1.05023" fill="#524971"/>
<circle cx="83.4936" cy="11.0274" r="1.05023" fill="#524971"/>
<circle cx="91.3701" cy="11.0274" r="1.05023" fill="#524971"/>
<circle cx="99.247" cy="11.0274" r="1.05023" fill="#524971"/>
<circle cx="107.123" cy="11.0274" r="1.05023" fill="#524971"/>
<circle cx="12.603" cy="21.0046" r="1.05023" fill="#524971"/>
<circle cx="20.4799" cy="21.0046" r="1.05023" fill="#524971"/>
<circle cx="28.3564" cy="21.0046" r="1.05023" fill="#524971"/>
<circle cx="36.2333" cy="21.0046" r="1.05023" fill="#524971"/>
<circle cx="44.1098" cy="21.0046" r="1.05023" fill="#524971"/>
<circle cx="51.9868" cy="21.0046" r="1.05023" fill="#524971"/>
<circle cx="59.8632" cy="21.0046" r="1.05023" fill="#524971"/>
<circle cx="67.7402" cy="21.0046" r="1.05023" fill="#524971"/>
<circle cx="75.6166" cy="21.0046" r="1.05023" fill="#524971"/>
<circle cx="83.4936" cy="21.0046" r="1.05023" fill="#524971"/>
<circle cx="91.3701" cy="21.0046" r="1.05023" fill="#524971"/>
<circle cx="99.247" cy="21.0046" r="1.05023" fill="#524971"/>
<circle cx="107.123" cy="21.0046" r="1.05023" fill="#524971"/>
<circle cx="12.603" cy="30.9817" r="1.05023" fill="#524971"/>
<circle cx="20.4799" cy="30.9817" r="1.05023" fill="#524971"/>
<circle cx="28.3564" cy="30.9817" r="1.05023" fill="#524971"/>
<circle cx="36.2333" cy="30.9817" r="1.05023" fill="#524971"/>
<circle cx="44.1098" cy="30.9817" r="1.05023" fill="#524971"/>
<circle cx="51.9868" cy="30.9817" r="1.05023" fill="#524971"/>
<circle cx="59.8632" cy="30.9817" r="1.05023" fill="#524971"/>
<circle cx="67.7402" cy="30.9817" r="1.05023" fill="#524971"/>
<circle cx="75.6166" cy="30.9817" r="1.05023" fill="#524971"/>
<circle cx="83.4936" cy="30.9817" r="1.05023" fill="#524971"/>
<circle cx="91.3701" cy="30.9817" r="1.05023" fill="#524971"/>
<circle cx="99.247" cy="30.9817" r="1.05023" fill="#524971"/>
<circle cx="107.123" cy="30.9817" r="1.05023" fill="#524971"/>
<circle cx="12.603" cy="40.9589" r="1.05023" fill="#524971"/>
<circle cx="20.4799" cy="40.9589" r="1.05023" fill="#524971"/>
<circle cx="28.3564" cy="40.9589" r="1.05023" fill="#524971"/>
<circle cx="36.2333" cy="40.9589" r="1.05023" fill="#524971"/>
<circle cx="44.1098" cy="40.9589" r="1.05023" fill="#524971"/>
<circle cx="51.9868" cy="40.9589" r="1.05023" fill="#524971"/>
<circle cx="59.8632" cy="40.9589" r="1.05023" fill="#524971"/>
<circle cx="67.7402" cy="40.9589" r="1.05023" fill="#524971"/>
<circle cx="75.6166" cy="40.9589" r="1.05023" fill="#524971"/>
<circle cx="83.4936" cy="40.9589" r="1.05023" fill="#524971"/>
<circle cx="91.3701" cy="40.9589" r="1.05023" fill="#524971"/>
<circle cx="99.247" cy="40.9589" r="1.05023" fill="#524971"/>
<circle cx="107.123" cy="40.9589" r="1.05023" fill="#524971"/>
<circle cx="12.603" cy="50.9361" r="1.05023" fill="#524971"/>
<circle cx="20.4799" cy="50.9361" r="1.05023" fill="#524971"/>
<circle cx="28.3564" cy="50.9361" r="1.05023" fill="#524971"/>
<circle cx="36.2333" cy="50.9361" r="1.05023" fill="#524971"/>
<circle cx="44.1098" cy="50.9361" r="1.05023" fill="#524971"/>
<circle cx="51.9868" cy="50.9361" r="1.05023" fill="#524971"/>
<circle cx="59.8632" cy="50.9361" r="1.05023" fill="#524971"/>
<circle cx="67.7402" cy="50.9361" r="1.05023" fill="#524971"/>
<circle cx="75.6166" cy="50.9361" r="1.05023" fill="#524971"/>
<circle cx="83.4936" cy="50.9361" r="1.05023" fill="#524971"/>
<circle cx="91.3701" cy="50.9361" r="1.05023" fill="#524971"/>
<circle cx="99.247" cy="50.9361" r="1.05023" fill="#524971"/>
<circle cx="107.123" cy="50.9361" r="1.05023" fill="#524971"/>
<circle cx="12.603" cy="60.9133" r="1.05023" fill="#524971"/>
<circle cx="20.4799" cy="60.9133" r="1.05023" fill="#524971"/>
<circle cx="28.3564" cy="60.9133" r="1.05023" fill="#524971"/>
<circle cx="36.2333" cy="60.9133" r="1.05023" fill="#524971"/>
<circle cx="44.1098" cy="60.9133" r="1.05023" fill="#524971"/>
<circle cx="51.9868" cy="60.9133" r="1.05023" fill="#524971"/>
<circle cx="59.8632" cy="60.9133" r="1.05023" fill="#524971"/>
<circle cx="67.7402" cy="60.9133" r="1.05023" fill="#524971"/>
<circle cx="75.6166" cy="60.9133" r="1.05023" fill="#524971"/>
<circle cx="83.4936" cy="60.9133" r="1.05023" fill="#524971"/>
<circle cx="91.3701" cy="60.9133" r="1.05023" fill="#524971"/>
<circle cx="99.247" cy="60.9133" r="1.05023" fill="#524971"/>
<circle cx="107.123" cy="60.9133" r="1.05023" fill="#524971"/>
<circle cx="12.603" cy="70.8904" r="1.05023" fill="#524971"/>
<circle cx="20.4799" cy="70.8904" r="1.05023" fill="#524971"/>
<circle cx="28.3564" cy="70.8904" r="1.05023" fill="#524971"/>
<circle cx="36.2333" cy="70.8904" r="1.05023" fill="#524971"/>
<circle cx="44.1098" cy="70.8904" r="1.05023" fill="#524971"/>
<circle cx="51.9868" cy="70.8904" r="1.05023" fill="#524971"/>
<circle cx="59.8632" cy="70.8904" r="1.05023" fill="#524971"/>
<circle cx="67.7402" cy="70.8904" r="1.05023" fill="#524971"/>
<circle cx="75.6166" cy="70.8904" r="1.05023" fill="#524971"/>
<circle cx="83.4936" cy="70.8904" r="1.05023" fill="#524971"/>
<circle cx="91.3701" cy="70.8904" r="1.05023" fill="#524971"/>
<circle cx="99.247" cy="70.8904" r="1.05023" fill="#524971"/>
<circle cx="107.123" cy="70.8904" r="1.05023" fill="#524971"/>
<circle cx="12.603" cy="80.8676" r="1.05023" fill="#524971"/>
<circle cx="20.4799" cy="80.8676" r="1.05023" fill="#524971"/>
<circle cx="28.3564" cy="80.8676" r="1.05023" fill="#524971"/>
<circle cx="36.2333" cy="80.8676" r="1.05023" fill="#524971"/>
<circle cx="44.1098" cy="80.8676" r="1.05023" fill="#524971"/>
<circle cx="51.9868" cy="80.8676" r="1.05023" fill="#524971"/>
<circle cx="59.8632" cy="80.8676" r="1.05023" fill="#524971"/>
<circle cx="67.7402" cy="80.8676" r="1.05023" fill="#524971"/>
<circle cx="75.6166" cy="80.8676" r="1.05023" fill="#524971"/>
<circle cx="83.4936" cy="80.8676" r="1.05023" fill="#524971"/>
<circle cx="91.3701" cy="80.8676" r="1.05023" fill="#524971"/>
<circle cx="99.247" cy="80.8676" r="1.05023" fill="#524971"/>
<circle cx="107.123" cy="80.8676" r="1.05023" fill="#524971"/>
<circle cx="12.603" cy="90.8447" r="1.05023" fill="#524971"/>
<circle cx="20.4799" cy="90.8447" r="1.05023" fill="#524971"/>
<circle cx="28.3564" cy="90.8447" r="1.05023" fill="#524971"/>
<circle cx="36.2333" cy="90.8447" r="1.05023" fill="#524971"/>
<circle cx="44.1098" cy="90.8447" r="1.05023" fill="#524971"/>
<circle cx="51.9868" cy="90.8447" r="1.05023" fill="#524971"/>
<circle cx="59.8632" cy="90.8447" r="1.05023" fill="#524971"/>
<circle cx="67.7402" cy="90.8447" r="1.05023" fill="#524971"/>
<circle cx="75.6166" cy="90.8447" r="1.05023" fill="#524971"/>
<circle cx="83.4936" cy="90.8447" r="1.05023" fill="#524971"/>
<circle cx="91.3701" cy="90.8447" r="1.05023" fill="#524971"/>
<circle cx="99.247" cy="90.8447" r="1.05023" fill="#524971"/>
<circle cx="107.123" cy="90.8447" r="1.05023" fill="#524971"/>
<circle cx="12.603" cy="100.822" r="1.05023" fill="#524971"/>
<circle cx="20.4799" cy="100.822" r="1.05023" fill="#524971"/>
<circle cx="28.3564" cy="100.822" r="1.05023" fill="#524971"/>
<circle cx="36.2333" cy="100.822" r="1.05023" fill="#524971"/>
<circle cx="44.1098" cy="100.822" r="1.05023" fill="#524971"/>
<circle cx="51.9868" cy="100.822" r="1.05023" fill="#524971"/>
<circle cx="59.8632" cy="100.822" r="1.05023" fill="#524971"/>
<circle cx="67.7402" cy="100.822" r="1.05023" fill="#524971"/>
<circle cx="75.6166" cy="100.822" r="1.05023" fill="#524971"/>
<circle cx="83.4936" cy="100.822" r="1.05023" fill="#524971"/>
<circle cx="91.3701" cy="100.822" r="1.05023" fill="#524971"/>
<circle cx="99.247" cy="100.822" r="1.05023" fill="#524971"/>
<circle cx="107.123" cy="100.822" r="1.05023" fill="#524971"/>
<circle cx="12.603" cy="110.799" r="1.05023" fill="#524971"/>
<circle cx="20.4799" cy="110.799" r="1.05023" fill="#524971"/>
<circle cx="28.3564" cy="110.799" r="1.05023" fill="#524971"/>
<circle cx="36.2333" cy="110.799" r="1.05023" fill="#524971"/>
<circle cx="44.1098" cy="110.799" r="1.05023" fill="#524971"/>
<circle cx="51.9868" cy="110.799" r="1.05023" fill="#524971"/>
<circle cx="59.8632" cy="110.799" r="1.05023" fill="#524971"/>
<circle cx="67.7402" cy="110.799" r="1.05023" fill="#524971"/>
<circle cx="75.6166" cy="110.799" r="1.05023" fill="#524971"/>
<circle cx="83.4936" cy="110.799" r="1.05023" fill="#524971"/>
<circle cx="91.3701" cy="110.799" r="1.05023" fill="#524971"/>
<circle cx="99.247" cy="110.799" r="1.05023" fill="#524971"/>
<circle cx="107.123" cy="110.799" r="1.05023" fill="#524971"/>
<path d="M64.8506 27.9199C69.6298 31.2067 76.1685 29.9969 79.4552 25.2178L62.1485 13.3153C58.8617 18.0944 60.0715 24.6331 64.8506 27.9199Z" fill="#FF4D55"/>
<path d="M66.636 25.3239C69.9814 27.6247 74.5585 26.7778 76.8592 23.4324L64.7445 15.1007C62.4437 18.4461 63.2906 23.0232 66.636 25.3239Z" fill="#1C1046"/>
<path d="M17.3286 83.4932C17.3286 88.1334 21.0902 91.895 25.7304 91.895L27.8309 83.4932H17.3286Z" fill="#FBBD00"/>
<circle cx="59.6004" cy="35.9703" r="17.0662" fill="#18C5D9"/>
<path fill-rule="evenodd" clip-rule="evenodd" d="M56.2387 375.745C63.5376 375.745 67.5086 367.429 67.5086 360.152V359.409C68.2583 358.619 68.9104 357.666 69.4398 356.588C68.7202 357.021 67.9623 357.32 67.186 357.479C67.9842 356.785 68.5894 355.739 68.9032 354.509C68.1278 355.108 67.2975 355.559 66.4347 355.85C66.0719 355.283 65.6257 354.831 65.126 354.523C64.6263 354.214 64.0847 354.058 63.5376 354.063C62.4893 354.085 61.4885 354.671 60.7472 355.697C60.0059 356.723 59.5824 358.107 59.5665 359.558C59.5421 359.96 59.5786 360.364 59.6738 360.746C58.0944 360.64 56.5495 360.069 55.1426 359.07C53.7357 358.071 52.4993 356.668 51.5163 354.954C51.1632 355.814 50.9782 356.787 50.9797 357.776C50.994 358.673 51.1561 359.554 51.4537 360.352C51.7512 361.15 52.1765 361.843 52.6969 362.379C52.0518 362.361 51.4218 362.105 50.8724 361.637C50.8713 362.909 51.1931 364.141 51.7815 365.118C52.37 366.095 53.1878 366.755 54.0922 366.983C53.7427 367.113 53.3801 367.163 53.0189 367.131C52.7637 367.155 52.5078 367.105 52.2676 366.983C52.5301 368.083 53.0318 369.045 53.7042 369.736C54.3765 370.427 55.1867 370.814 56.024 370.844C54.6147 372.37 52.8799 373.207 51.0905 373.225C50.7637 373.249 50.4361 373.199 50.1211 373.076C51.8972 374.861 54.0441 375.799 56.2387 375.749" fill="white"/>
<circle cx="97.9339" cy="70.1027" r="17.0662" fill="#18C5D9"/>
<path fill-rule="evenodd" clip-rule="evenodd" d="M99.4269 423.613V410.775H102.595L103.048 405.765H99.4269V402.634C99.4269 401.225 99.769 400.129 101.238 400.129H103.161V395.59C102.709 395.59 101.577 395.432 100.332 395.432C97.6168 395.432 95.6932 397.78 95.6932 402.008V405.766H92.5244V410.775H95.6926V423.613H99.4269Z" fill="white"/>
<circle cx="17.0662" cy="70.1027" r="17.0662" fill="#18C5D9"/>
<path fill-rule="evenodd" clip-rule="evenodd" d="M17.1576 400.096C18.1836 400.043 19.2111 400.083 20.2334 400.215C20.7292 400.206 21.2218 400.327 21.6856 400.57C22.3254 400.982 22.8396 401.694 23.1378 402.579C23.3134 403.221 23.4004 403.902 23.3943 404.588C23.3943 405.652 23.48 406.007 23.48 408.844C23.5184 410.264 23.4898 411.685 23.3943 413.1C23.4004 413.786 23.3134 414.467 23.1378 415.109C22.8396 415.994 22.3254 416.706 21.6856 417.118C21.2218 417.361 20.7292 417.482 20.2334 417.473C19.4644 417.473 19.2079 417.592 17.1576 417.592C16.1316 417.645 15.1041 417.605 14.0818 417.473C13.586 417.482 13.0934 417.361 12.6296 417.118C11.9898 416.706 11.4756 415.994 11.1774 415.109C11.0016 414.467 10.9144 413.786 10.9203 413.1C10.9203 412.036 10.8347 411.681 10.8347 408.844C10.7962 407.424 10.8248 406.003 10.9203 404.588C10.9142 403.902 11.0012 403.221 11.1768 402.579C11.326 402.14 11.5283 401.74 11.775 401.396C11.9753 400.983 12.2798 400.688 12.6291 400.569C13.093 400.326 13.5858 400.205 14.0818 400.214C15.1041 400.082 16.1316 400.043 17.1576 400.096ZM17.1576 398.205C16.103 398.153 15.0471 398.192 13.9961 398.323C13.354 398.321 12.7171 398.481 12.1166 398.796C11.5981 399.03 11.1288 399.435 10.7495 399.978C10.3576 400.502 10.0644 401.152 9.89545 401.869C9.62722 402.683 9.5098 403.577 9.55381 404.47C9.4592 405.924 9.43059 407.385 9.46813 408.844C9.43061 410.303 9.45923 411.764 9.55381 413.218C9.5523 414.106 9.66808 414.987 9.89545 415.818C10.0644 416.536 10.3576 417.185 10.7495 417.71C11.1288 418.252 11.5981 418.658 12.1166 418.891C12.7171 419.206 13.354 419.366 13.9961 419.364C15.0471 419.495 16.103 419.535 17.1576 419.483C18.212 419.535 19.2677 419.496 20.3185 419.365C20.9606 419.367 21.5976 419.207 22.198 418.892C22.7126 418.647 23.18 418.243 23.5649 417.71C23.9497 417.178 24.2419 416.531 24.4192 415.819C24.6466 414.988 24.7623 414.107 24.7608 413.218C24.7608 412.036 24.8471 411.681 24.8471 408.844C24.8846 407.385 24.856 405.924 24.7614 404.47C24.7629 403.582 24.6471 402.701 24.4198 401.87C24.2508 401.152 23.9576 400.503 23.5657 399.978C23.1863 399.436 22.7168 399.03 22.198 398.796C21.5976 398.481 20.9606 398.321 20.3185 398.323C19.2677 398.192 18.212 398.153 17.1576 398.205ZM17.1576 403.406C16.6391 403.394 16.1241 403.526 15.6434 403.795C15.1626 404.065 14.7259 404.465 14.3592 404.972C13.9925 405.479 13.7033 406.084 13.5088 406.749C13.3143 407.414 13.2186 408.127 13.2272 408.844C13.2273 409.919 13.4579 410.971 13.8897 411.865C14.3216 412.759 14.9353 413.456 15.6534 413.867C16.3715 414.278 17.1616 414.386 17.9239 414.176C18.6861 413.966 19.3863 413.449 19.9359 412.688C20.4855 411.928 20.8597 410.959 21.0114 409.904C21.163 408.85 21.0853 407.756 20.7879 406.763C20.4905 405.769 19.9869 404.92 19.3407 404.322C18.6945 403.725 17.9348 403.406 17.1576 403.406ZM17.1576 412.39C16.8193 412.399 16.4832 412.313 16.1694 412.138C15.8556 411.963 15.5706 411.702 15.3313 411.371C15.092 411.04 14.9034 410.645 14.7768 410.211C14.6502 409.777 14.5881 409.312 14.5943 408.844C14.588 408.376 14.65 407.911 14.7766 407.477C14.9032 407.042 15.0918 406.648 15.3311 406.317C15.5704 405.986 15.8555 405.725 16.1693 405.55C16.4831 405.374 16.8193 405.289 17.1576 405.297C17.4959 405.289 17.832 405.375 18.1457 405.55C18.4595 405.725 18.7445 405.986 18.9837 406.317C19.223 406.648 19.4115 407.043 19.5381 407.477C19.6646 407.911 19.7266 408.376 19.7204 408.844C19.7266 409.312 19.6645 409.777 19.5379 410.211C19.4113 410.645 19.2228 411.039 18.9835 411.37C18.7443 411.701 18.4593 411.962 18.1456 412.137C17.8319 412.313 17.4959 412.399 17.1576 412.39ZM21.2583 401.869C21.0724 401.869 20.8907 401.945 20.7362 402.088C20.5816 402.231 20.4612 402.434 20.3901 402.672C20.3189 402.909 20.3003 403.171 20.3366 403.423C20.3728 403.675 20.4623 403.907 20.5938 404.089C20.7252 404.271 20.8926 404.395 21.0749 404.445C21.2572 404.495 21.4462 404.469 21.6179 404.371C21.7896 404.272 21.9364 404.106 22.0397 403.892C22.1429 403.678 22.198 403.427 22.198 403.169C22.1959 402.825 22.0962 402.496 21.9204 402.253C21.7446 402.01 21.5069 401.872 21.2583 401.869Z" fill="white"/>
</svg>
