<svg width="160" height="103" viewBox="0 0 160 103" fill="none" xmlns="http://www.w3.org/2000/svg">
<path d="M122.837 78.1674C116.951 77.2519 111.438 81.2811 110.522 87.1669L131.836 90.4823C132.752 84.5965 128.723 79.0829 122.837 78.1674Z" fill="#FBBD00"/>
<path d="M122.34 81.3645C118.22 80.7237 114.36 83.5441 113.719 87.6642L128.639 89.9849C129.28 85.8649 126.46 82.0054 122.34 81.3645Z" fill="#1C1046"/>
<circle cx="1.17814" cy="1.07853" r="1.07853" fill="#524971"/>
<circle cx="9.2675" cy="1.07853" r="1.07853" fill="#524971"/>
<circle cx="17.3559" cy="1.07853" r="1.07853" fill="#524971"/>
<circle cx="25.4452" cy="1.07853" r="1.07853" fill="#524971"/>
<circle cx="33.5346" cy="1.07853" r="1.07853" fill="#524971"/>
<circle cx="41.623" cy="1.07853" r="1.07853" fill="#524971"/>
<circle cx="1.17814" cy="11.3246" r="1.07853" fill="#524971"/>
<circle cx="9.2675" cy="11.3246" r="1.07853" fill="#524971"/>
<circle cx="17.3559" cy="11.3246" r="1.07853" fill="#524971"/>
<circle cx="25.4452" cy="11.3246" r="1.07853" fill="#524971"/>
<circle cx="33.5346" cy="11.3246" r="1.07853" fill="#524971"/>
<circle cx="41.623" cy="11.3246" r="1.07853" fill="#524971"/>
<circle cx="1.17814" cy="21.5707" r="1.07853" fill="#524971"/>
<circle cx="9.2675" cy="21.5707" r="1.07853" fill="#524971"/>
<circle cx="17.3559" cy="21.5707" r="1.07853" fill="#524971"/>
<circle cx="25.4452" cy="21.5707" r="1.07853" fill="#524971"/>
<circle cx="33.5346" cy="21.5707" r="1.07853" fill="#524971"/>
<circle cx="41.623" cy="21.5707" r="1.07853" fill="#524971"/>
<circle cx="1.17814" cy="31.8168" r="1.07853" fill="#524971"/>
<circle cx="9.2675" cy="31.8168" r="1.07853" fill="#524971"/>
<circle cx="17.3559" cy="31.8168" r="1.07853" fill="#524971"/>
<circle cx="25.4452" cy="31.8168" r="1.07853" fill="#524971"/>
<circle cx="33.5346" cy="31.8168" r="1.07853" fill="#524971"/>
<circle cx="41.623" cy="31.8168" r="1.07853" fill="#524971"/>
<circle cx="1.17814" cy="42.0628" r="1.07853" fill="#524971"/>
<circle cx="9.2675" cy="42.0628" r="1.07853" fill="#524971"/>
<circle cx="17.3559" cy="42.0628" r="1.07853" fill="#524971"/>
<circle cx="25.4452" cy="42.0628" r="1.07853" fill="#524971"/>
<circle cx="33.5346" cy="42.0628" r="1.07853" fill="#524971"/>
<circle cx="41.623" cy="42.0628" r="1.07853" fill="#524971"/>
<circle cx="1.17814" cy="52.3089" r="1.07853" fill="#524971"/>
<circle cx="9.2675" cy="52.3089" r="1.07853" fill="#524971"/>
<circle cx="17.3559" cy="52.3089" r="1.07853" fill="#524971"/>
<circle cx="25.4452" cy="52.3089" r="1.07853" fill="#524971"/>
<circle cx="33.5346" cy="52.3089" r="1.07853" fill="#524971"/>
<circle cx="41.623" cy="52.3089" r="1.07853" fill="#524971"/>
<path d="M17.4232 31.5422L29.038 23.6883L9.56934 19.9274L17.4232 31.5422Z" fill="#FF4D55"/>
<path d="M29.1828 22.9395L9.9375 19.0276L10.8309 18.4234L28.4276 21.8227L29.1828 22.9395Z" fill="#FF4D55"/>
<path d="M27.3699 20.2592L12.394 17.3661L13.3104 16.7465L26.6148 19.1424L27.3699 20.2592Z" fill="#FF4D55"/>
<path d="M25.5576 17.5788L14.8511 15.7048L15.7445 15.1006L24.9534 16.6854L25.5576 17.5788Z" fill="#FF4D55"/>
<path d="M17.3076 14.0435L23.8957 15.1219L23.1406 14.0051L18.4244 13.2883L17.3076 14.0435Z" fill="#FF4D55"/>
<path d="M22.2347 12.665L19.9883 12.231L21.3284 11.3248L22.2347 12.665Z" fill="#FF4D55"/>
<circle cx="118.199" cy="50.6911" r="1.07853" fill="#524971"/>
<circle cx="126.288" cy="50.6911" r="1.07853" fill="#524971"/>
<circle cx="134.377" cy="50.6911" r="1.07853" fill="#524971"/>
<circle cx="142.466" cy="50.6911" r="1.07853" fill="#524971"/>
<circle cx="150.555" cy="50.6911" r="1.07853" fill="#524971"/>
<circle cx="158.644" cy="50.6911" r="1.07853" fill="#524971"/>
<circle cx="118.199" cy="60.9372" r="1.07853" fill="#524971"/>
<circle cx="126.288" cy="60.9372" r="1.07853" fill="#524971"/>
<circle cx="134.377" cy="60.9372" r="1.07853" fill="#524971"/>
<circle cx="142.466" cy="60.9372" r="1.07853" fill="#524971"/>
<circle cx="150.555" cy="60.9372" r="1.07853" fill="#524971"/>
<circle cx="158.644" cy="60.9372" r="1.07853" fill="#524971"/>
<circle cx="118.199" cy="71.1832" r="1.07853" fill="#524971"/>
<circle cx="126.288" cy="71.1832" r="1.07853" fill="#524971"/>
<circle cx="134.377" cy="71.1832" r="1.07853" fill="#524971"/>
<circle cx="142.466" cy="71.1832" r="1.07853" fill="#524971"/>
<circle cx="150.555" cy="71.1832" r="1.07853" fill="#524971"/>
<circle cx="158.644" cy="71.1832" r="1.07853" fill="#524971"/>
<circle cx="118.199" cy="81.4293" r="1.07853" fill="#524971"/>
<circle cx="126.288" cy="81.4293" r="1.07853" fill="#524971"/>
<circle cx="134.377" cy="81.4293" r="1.07853" fill="#524971"/>
<circle cx="142.466" cy="81.4293" r="1.07853" fill="#524971"/>
<circle cx="150.555" cy="81.4293" r="1.07853" fill="#524971"/>
<circle cx="158.644" cy="81.4293" r="1.07853" fill="#524971"/>
<circle cx="118.199" cy="91.6753" r="1.07853" fill="#524971"/>
<circle cx="126.288" cy="91.6753" r="1.07853" fill="#524971"/>
<circle cx="134.377" cy="91.6753" r="1.07853" fill="#524971"/>
<circle cx="142.466" cy="91.6753" r="1.07853" fill="#524971"/>
<circle cx="150.555" cy="91.6753" r="1.07853" fill="#524971"/>
<circle cx="158.644" cy="91.6753" r="1.07853" fill="#524971"/>
<circle cx="118.199" cy="101.921" r="1.07853" fill="#524971"/>
<circle cx="126.288" cy="101.921" r="1.07853" fill="#524971"/>
<circle cx="134.377" cy="101.921" r="1.07853" fill="#524971"/>
<circle cx="142.466" cy="101.921" r="1.07853" fill="#524971"/>
<circle cx="150.555" cy="101.921" r="1.07853" fill="#524971"/>
<circle cx="158.644" cy="101.921" r="1.07853" fill="#524971"/>
<rect x="21.1313" y="14.5602" width="122.414" height="16.178" rx="5" fill="white"/>
<rect x="21.1309" y="40.4451" width="122.414" height="16.178" rx="5" fill="#3AD29F"/>
<rect x="21.1309" y="67.4084" width="122.414" height="16.178" rx="5" fill="white"/>
<path opacity="0.1" d="M122.513 40.4451H138.545C141.306 40.4451 143.545 42.6836 143.545 45.4451V51.6231C143.545 54.3845 141.306 56.6231 138.545 56.6231H122.513V40.4451Z" fill="black"/>
<path opacity="0.1" d="M122.513 67.4084H138.545C141.306 67.4084 143.545 69.647 143.545 72.4084V78.5865C143.545 81.3479 141.306 83.5865 138.545 83.5865H122.513V67.4084Z" fill="black"/>
<path opacity="0.1" d="M122.513 14.5602H138.545C141.306 14.5602 143.545 16.7988 143.545 19.5602V25.7383C143.545 28.4997 141.306 30.7383 138.545 30.7383H122.513V14.5602Z" fill="black"/>
<path d="M129.523 71.1832L137.612 79.5419M137.612 71.1832L129.523 79.5419" stroke="white" stroke-width="5" stroke-linecap="round" stroke-linejoin="round"/>
<path d="M130.062 18.3351L138.152 26.6938M138.152 18.3351L130.062 26.6938" stroke="white" stroke-width="5" stroke-linecap="round" stroke-linejoin="round"/>
</svg>
