<svg width="121" height="121" viewBox="0 0 121 121" fill="none" xmlns="http://www.w3.org/2000/svg">
<path fill-rule="evenodd" clip-rule="evenodd" d="M0 4.09375C0 3.0246 0.42472 1.99923 1.18073 1.24323C1.93673 0.48722 2.9621 0.0625 4.03125 0.0625H16.125C17.0242 0.0627484 17.8975 0.36364 18.6061 0.917324C19.3146 1.47101 19.8177 2.2457 20.0353 3.11819L23.3006 16.1875H116.906C117.498 16.188 118.083 16.3189 118.618 16.5709C119.154 16.8228 119.628 17.1896 120.005 17.6452C120.383 18.1008 120.656 18.6341 120.805 19.207C120.953 19.78 120.974 20.3787 120.865 20.9605L108.771 85.4605C108.598 86.3843 108.108 87.2186 107.385 87.8193C106.662 88.4199 105.752 88.7491 104.812 88.75H32.25C31.3102 88.7491 30.4002 88.4199 29.6773 87.8193C28.9545 87.2186 28.4642 86.3843 28.2913 85.4605L16.2056 21.0814L12.9806 8.125H4.03125C2.9621 8.125 1.93673 7.70028 1.18073 6.94427C0.42472 6.18827 0 5.1629 0 4.09375ZM40.3125 88.75C36.0359 88.75 31.9344 90.4489 28.9104 93.4729C25.8864 96.4969 24.1875 100.598 24.1875 104.875C24.1875 109.152 25.8864 113.253 28.9104 116.277C31.9344 119.301 36.0359 121 40.3125 121C44.5891 121 48.6906 119.301 51.7146 116.277C54.7386 113.253 56.4375 109.152 56.4375 104.875C56.4375 100.598 54.7386 96.4969 51.7146 93.4729C48.6906 90.4489 44.5891 88.75 40.3125 88.75ZM96.75 88.75C92.4734 88.75 88.3719 90.4489 85.3479 93.4729C82.3239 96.4969 80.625 100.598 80.625 104.875C80.625 109.152 82.3239 113.253 85.3479 116.277C88.3719 119.301 92.4734 121 96.75 121C101.027 121 105.128 119.301 108.152 116.277C111.176 113.253 112.875 109.152 112.875 104.875C112.875 100.598 111.176 96.4969 108.152 93.4729C105.128 90.4489 101.027 88.75 96.75 88.75ZM40.3125 96.8125C38.1742 96.8125 36.1235 97.6619 34.6115 99.174C33.0994 100.686 32.25 102.737 32.25 104.875C32.25 107.013 33.0994 109.064 34.6115 110.576C36.1235 112.088 38.1742 112.938 40.3125 112.938C42.4508 112.938 44.5015 112.088 46.0135 110.576C47.5256 109.064 48.375 107.013 48.375 104.875C48.375 102.737 47.5256 100.686 46.0135 99.174C44.5015 97.6619 42.4508 96.8125 40.3125 96.8125ZM96.75 96.8125C94.6117 96.8125 92.561 97.6619 91.049 99.174C89.5369 100.686 88.6875 102.737 88.6875 104.875C88.6875 107.013 89.5369 109.064 91.049 110.576C92.561 112.088 94.6117 112.938 96.75 112.938C98.8883 112.938 100.939 112.088 102.451 110.576C103.963 109.064 104.812 107.013 104.812 104.875C104.812 102.737 103.963 100.686 102.451 99.174C100.939 97.6619 98.8883 96.8125 96.75 96.8125Z" fill="white"/>
</svg>
