<svg width="128" height="128" viewBox="0 0 128 128" fill="none" xmlns="http://www.w3.org/2000/svg">
<path d="M95.48 112.66H32.46L38.57 89.82H89.37L95.48 112.66Z" fill="#2F2F2F"/>
<path d="M95.5198 115.68H32.4598C31.5198 115.68 30.6298 115.24 30.0698 114.5C29.4998 113.76 29.3098 112.79 29.5498 111.88L35.6598 89.04C35.8317 88.397 36.2112 87.8289 36.7392 87.4238C37.2672 87.0187 37.9143 86.7994 38.5798 86.8H89.3798C90.7498 86.8 91.9498 87.72 92.2998 89.04L98.2798 111.4C98.4498 111.78 98.5498 112.21 98.5498 112.65C98.5398 114.32 97.1898 115.68 95.5198 115.68ZM36.3898 109.63H91.5398L87.0498 92.83H40.8898L36.3898 109.63Z" fill="#2F2F2F"/>
<path d="M24.4199 112.66H103.51V121.01H24.4199V112.66Z" fill="#2F2F2F"/>
<path d="M103.51 124.03H24.4199C22.7499 124.03 21.3999 122.68 21.3999 121.01V112.66C21.3999 110.99 22.7499 109.64 24.4199 109.64H103.51C105.18 109.64 106.53 110.99 106.53 112.66V121.01C106.53 122.68 105.18 124.03 103.51 124.03ZM27.4399 117.99H100.49V115.68H27.4399V117.99Z" fill="#2F2F2F"/>
<path d="M78.7501 98.51H49.2001C48.1801 98.51 47.3501 99.34 47.3501 100.36V108.71C47.3501 109.73 48.1801 110.56 49.2001 110.56H78.7501C79.7701 110.56 80.6001 109.73 80.6001 108.71V100.36C80.5996 99.8695 80.4045 99.3993 80.0577 99.0524C79.7108 98.7056 79.2406 98.5105 78.7501 98.51Z" fill="#C0C0C0"/>
<path d="M20.1799 18.4901C18.2999 18.4901 16.5099 18.8201 14.8599 19.4701C7.89987 22.2401 5.89987 30.1301 7.52987 36.4901C8.88987 41.8101 13.6499 45.9201 17.7599 47.6401C18.6999 48.0301 19.6599 48.33 20.5899 48.6201C21.5099 48.9001 22.3699 49.1701 23.2099 49.5201C24.4599 50.0401 25.6299 51.05 26.2499 52.16C26.8699 53.28 26.7099 53.9001 26.3699 55.1401C26.2799 55.4701 26.1899 55.8301 26.0999 56.2101C25.9099 57.0901 25.7699 58.1301 26.0899 59.16C26.5999 60.84 27.8899 61.8801 29.4399 61.8801C32.2899 61.8 34.4499 59.4801 35.4699 55.4901L35.4799 55.4601L35.5199 55.2901C35.9299 53.6601 36.0299 52.1901 35.7899 50.8801C35.5799 49.6601 35.1599 48.5701 34.5599 47.6301C32.5099 44.4301 29.2399 42.5801 26.0599 40.9601C25.4999 40.67 24.9299 40.4001 24.3599 40.1301C22.3299 39.1601 20.2199 38.1501 18.7299 36.5701C17.4799 35.2401 17.0999 33.4001 17.7199 31.7601C18.2999 30.2201 19.6099 29.2501 21.2999 29.1001C21.4899 29.0801 21.6799 29.0701 21.8599 29.0701C26.2099 29.0701 28.9599 33.6801 31.1599 37.3801L31.3599 37.7101L32.8899 40.2701L33.3299 37.3201C33.4699 36.4101 33.5899 35.4401 33.5899 34.5001C33.5799 33.8501 33.5999 33.1801 33.6099 32.5201C33.6999 28.3901 33.7999 23.7201 29.2699 21.0501C26.4799 19.4001 23.2499 18.4901 20.1799 18.4901Z" fill="#C0C0C0"/>
<path d="M93.2599 51.06C93.4399 50.03 93.7899 49.05 94.3399 48.2C96.2599 45.21 99.3499 43.47 102.43 41.9C105.05 40.56 107.99 39.47 110.05 37.29C113.2 33.95 111.45 28.43 106.8 28.02C101.3 27.54 98.1199 33.14 95.7299 37.15C95.5999 36.29 95.4799 35.37 95.4799 34.5C95.5199 29.85 94.6199 24.71 99.2699 21.96C103.22 19.62 108.35 18.73 112.73 20.46C118.98 22.94 120.98 30.13 119.43 36.22C118.25 40.83 114.08 44.87 109.82 46.65C108.04 47.39 106.15 47.79 104.37 48.53C102.94 49.12 101.57 50.27 100.81 51.63C99.7599 53.5 100.44 54.58 100.85 56.44C101.02 57.23 101.13 58.06 100.89 58.84C100.55 59.95 99.7099 60.84 98.4899 60.81C95.5899 60.73 94.1499 57.56 93.5399 55.17C93.5286 55.1482 93.5218 55.1244 93.5199 55.1C93.2099 53.8 93.0199 52.39 93.2599 51.06Z" fill="#C0C0C0"/>
<path d="M107.82 18.4901C104.75 18.4901 101.53 19.3901 98.74 21.0401C94.22 23.7101 94.32 28.38 94.4 32.51C94.41 33.17 94.43 33.8401 94.42 34.4901C94.42 35.4301 94.54 36.4001 94.68 37.3101L95.12 40.26L96.65 37.7001L96.85 37.3701C99.05 33.6701 101.8 29.0601 106.15 29.0601C106.33 29.0601 106.52 29.0701 106.71 29.0901C108.4 29.2401 109.71 30.2001 110.29 31.7501C110.92 33.4001 110.53 35.2401 109.28 36.5601C107.78 38.1401 105.68 39.1501 103.65 40.1201C103.07 40.4001 102.5 40.6701 101.94 40.9501C98.76 42.5701 95.49 44.4201 93.44 47.6301C92.84 48.5601 92.42 49.6601 92.21 50.8801C91.97 52.1901 92.07 53.6501 92.5 55.3601L92.52 55.4201L92.53 55.4601C93.55 59.4601 95.71 61.8 98.47 61.8801C100.12 61.8801 101.4 60.84 101.92 59.16C102.24 58.1301 102.09 57.1001 101.91 56.2201C101.82 55.8301 101.73 55.4701 101.63 55.1401C101.29 53.9001 101.12 53.2701 101.75 52.1501C102.37 51.0401 103.54 50.0301 104.79 49.51C105.63 49.16 106.49 48.9001 107.41 48.6101C108.34 48.3201 109.31 48.0201 110.24 47.6301C114.36 45.9201 119.11 41.8001 120.47 36.4801C122.1 30.1201 120.09 22.2301 113.13 19.4701C111.49 18.8201 109.7 18.4901 107.82 18.4901Z" fill="#C0C0C0"/>
<path d="M94.83 17.61C89.12 12.33 80.23 9.77005 72.67 9.18005C69.78 8.95005 66.87 8.87005 63.97 8.86005C61.07 8.88005 58.16 8.96005 55.27 9.18005C47.72 9.77005 38.82 12.33 33.11 17.61C29.73 20.73 30.68 26.16 31.1 30.26C31.87 37.76 33.33 47.73 38.38 53.7C39.84 55.43 41.34 57.05 42.98 58.49C44.83 60.1 46.5 61.96 48.38 63.57C50.69 65.55 53.31 67.7701 53.78 70.94C54.45 75.48 51.4 76.74 47.9 78.32C45.44 79.43 42.74 82.05 43.75 85.01C44.83 88.1701 49.42 87.51 52.02 87.68C59.54 88.17 67.09 87.86 74.62 87.64C77.23 87.56 84.3 87.89 84.3 83.85C84.3 82.4 83.62 81.02 82.58 80.03C81.84 79.33 80.97 78.75 80.04 78.33C76.54 76.75 73.48 75.49 74.16 70.95C74.64 67.78 77.25 65.56 79.56 63.58C81.44 61.97 83.11 60.12 84.96 58.5C86.6 57.06 88.1 55.44 89.57 53.71C94.61 47.74 96.07 37.77 96.85 30.27C97.26 26.15 98.2 20.73 94.83 17.61ZM63.97 29.38C49.61 29.38 37.97 26.11 37.97 22.07C37.97 18.03 49.61 14.76 63.97 14.76C78.33 14.76 89.97 18.03 89.97 22.07C89.97 26.1 78.33 29.38 63.97 29.38Z" fill="#C0C0C0"/>
<path d="M63.97 7.78003C60.56 7.80003 57.77 7.90003 55.19 8.11003C46.04 8.83003 37.51 12.09 32.39 16.83C28.9 20.06 29.47 25.2 29.93 29.33L30.04 30.38C30.91 38.88 32.48 48.39 37.57 54.4C39.28 56.42 40.78 57.98 42.29 59.3C43.15 60.05 44 60.89 44.82 61.69C45.74 62.59 46.69 63.52 47.7 64.38C50.01 66.36 52.33 68.35 52.74 71.1C53.26 74.57 51.37 75.6 47.72 77.24L47.47 77.35C44.36 78.75 41.56 81.85 42.75 85.36C43.87 88.67 47.68 88.7 50.46 88.72C51 88.72 51.51 88.72 51.96 88.75C54.68 88.93 57.61 89.02 60.89 89.02C64.81 89.02 68.78 88.9 72.63 88.77L74.66 88.71C74.9 88.7 75.18 88.7 75.49 88.7C78.7 88.66 85.37 88.57 85.37 83.85C85.37 82.17 84.62 80.5 83.32 79.26C82.51 78.49 81.53 77.83 80.49 77.36L80.24 77.25C76.59 75.6 74.71 74.58 75.22 71.11C75.63 68.35 77.96 66.36 80.21 64.44C81.27 63.53 82.22 62.6 83.14 61.7C83.96 60.9 84.81 60.06 85.67 59.31C87.17 58 88.67 56.44 90.4 54.41C95.47 48.41 97.05 38.9 97.92 30.39L98.04 29.33C98.49 25.21 99.06 20.07 95.58 16.85C90.46 12.11 81.93 8.85003 72.78 8.13003C70.17 7.91003 67.38 7.80003 63.97 7.78003ZM63.97 28.31C48.52 28.31 39.04 24.67 39.04 22.07C39.04 19.46 48.53 15.83 63.97 15.83C79.42 15.83 88.9 19.47 88.9 22.07C88.9 24.68 79.42 28.31 63.97 28.31Z" fill="#C0C0C0"/>
<path d="M87.1299 33.22C86.7999 33.22 86.4599 33.33 86.1599 33.41C85.4799 33.58 84.8399 33.88 84.1599 34.08C83.5599 34.25 82.9899 34.46 82.3999 34.66C81.2599 35.07 79.5899 35.18 78.7299 36.1C77.9299 36.94 77.8599 38.56 77.6999 39.63C77.4599 41.25 77.3099 42.88 77.0999 44.51C76.6999 47.62 75.8999 50.65 74.8599 53.61C74.2619 55.2974 73.5777 56.9529 72.8099 58.57C72.1399 59.98 71.3999 61.38 70.5599 62.71C70.1999 63.27 69.0899 64.65 69.8599 65.26C70.3099 65.62 71.2499 65.57 71.7299 65.35C77.0299 62.85 80.6599 58 83.1399 52.84C83.9099 51.25 84.5699 49.6 85.1799 47.93C85.9399 45.85 86.5599 43.73 87.1599 41.6C87.5299 40.3 87.8699 38.99 88.1199 37.66C88.3099 36.64 88.9899 33.74 87.5199 33.28C87.3958 33.2317 87.2627 33.2112 87.1299 33.22Z" fill="#855C52"/>
<path d="M74.6596 86.05C73.5296 86.15 72.1696 86.16 71.3796 85.75C71.1396 85.62 70.9996 85.46 71.0496 85.18C71.0996 84.88 71.2396 84.89 71.4496 84.74C71.8196 84.48 72.2696 83.98 72.4896 83.59C73.1596 82.39 72.5696 81.05 72.1296 79.88C71.9596 79.43 71.3596 78.81 71.9796 78.45C72.3196 78.26 72.8496 78.35 73.1996 78.43C73.6996 78.54 74.2696 78.76 74.7496 78.93C76.5596 79.6 78.3496 81.43 78.3496 83.45C78.3496 85 77.2296 85.74 75.8096 85.92C75.4696 85.96 75.0796 86.01 74.6596 86.05Z" fill="#855C52"/>
</svg>
