<svg width="105" height="105" viewBox="0 0 105 105" fill="none" xmlns="http://www.w3.org/2000/svg">
<path d="M52.5 0.09375C23.6035 0.09375 0.09375 23.6035 0.09375 52.5C0.09375 81.3965 23.6035 104.906 52.5 104.906C81.3965 104.906 104.906 81.3965 104.906 52.5C104.906 23.6035 81.3965 0.09375 52.5 0.09375ZM88.5293 76.6875H77.136C76.7829 76.6867 76.4363 76.5932 76.1308 76.4163C75.8252 76.2394 75.5715 75.9854 75.395 75.6797L71.3285 68.7056C71.0607 68.2496 70.9829 67.7067 71.1118 67.1939L74.8558 52.0969C74.9309 51.7927 75.0759 51.5102 75.2793 51.2718C75.4827 51.0335 75.7388 50.8458 76.0274 50.7237L83.1073 47.7255C83.4532 47.5788 83.8333 47.5317 84.2046 47.5896C84.5759 47.6475 84.9237 47.808 85.2086 48.053L95.6974 57.078C95.9559 57.3006 96.1537 57.5852 96.2723 57.9051C96.3908 58.2251 96.4262 58.5698 96.3751 58.9072C95.5065 64.8667 93.4244 70.5846 90.2577 75.7074C90.0788 76.0061 89.8256 76.2535 89.5227 76.4252C89.2197 76.597 88.8775 76.6873 88.5293 76.6875ZM21.8927 47.7456L28.9726 50.7439C29.2612 50.866 29.5173 51.0536 29.7207 51.292C29.9241 51.5303 30.0691 51.8128 30.1442 52.117L33.8882 67.2141C34.0171 67.7269 33.9393 68.2698 33.6715 68.7258L29.605 75.6797C29.4285 75.9854 29.1748 76.2394 28.8692 76.4163C28.5637 76.5932 28.2171 76.6867 27.864 76.6875H16.4707C16.1261 76.6877 15.7872 76.5996 15.4864 76.4315C15.1856 76.2635 14.9329 76.0211 14.7524 75.7276C11.5857 70.6048 9.50363 64.8869 8.63496 58.9273C8.58389 58.59 8.61928 58.2452 8.73782 57.9253C8.85636 57.6054 9.05417 57.3208 9.31271 57.0981L19.8015 48.0732C20.0854 47.83 20.4314 47.6707 20.8007 47.6128C21.17 47.555 21.5481 47.601 21.8927 47.7456ZM86.6296 25.7653L82.0768 38.7106C81.9853 38.9752 81.8397 39.2178 81.6492 39.423C81.4588 39.6281 81.2277 39.7914 80.9707 39.9023L73.5179 43.0593C73.1759 43.204 72.8006 43.2514 72.4334 43.1963C72.0661 43.1411 71.7212 42.9856 71.4368 42.7469L57.2619 30.8572C57.0354 30.6698 56.8526 30.4352 56.7264 30.1697C56.6002 29.9042 56.5336 29.6143 56.5312 29.3203V20.8597C56.5314 20.5282 56.6134 20.2019 56.7699 19.9096C56.9263 19.6174 57.1524 19.3682 57.4282 19.1842L68.2194 11.9935C68.501 11.8055 68.8254 11.6915 69.1627 11.662C69.5 11.6325 69.8393 11.6885 70.1493 11.8247C76.3586 14.5328 81.8689 18.6206 86.2617 23.7773C86.4927 24.047 86.6483 24.3728 86.7129 24.7218C86.7775 25.0709 86.7487 25.4309 86.6296 25.7653ZM36.7781 11.9935L47.5718 19.1842C47.8476 19.3682 48.0737 19.6174 48.2301 19.9096C48.3866 20.2019 48.4686 20.5282 48.4688 20.8597V29.3203C48.4687 29.6148 48.4042 29.9056 48.2797 30.1725C48.1552 30.4393 47.9738 30.6756 47.7482 30.8648L33.5733 42.7545C33.2888 42.9932 32.944 43.1487 32.5767 43.2038C32.2095 43.259 31.8342 43.2116 31.4921 43.0669L24.0293 39.9023C23.7707 39.7928 23.5378 39.6305 23.3456 39.4257C23.1534 39.2209 23.0061 38.9782 22.9131 38.7131L18.3604 25.7678C18.242 25.4322 18.2147 25.0712 18.2811 24.7216C18.3474 24.372 18.5052 24.0462 18.7383 23.7773C23.1336 18.6154 28.6485 14.524 34.8633 11.8146C35.1721 11.6825 35.509 11.6297 35.8434 11.661C36.1778 11.6922 36.4991 11.8065 36.7781 11.9935ZM41.1394 94.4981L36.1684 81.9785C36.0547 81.6939 36.0074 81.3872 36.0301 81.0815C36.0528 80.7759 36.1449 80.4795 36.2994 80.2148L40.1215 73.6641C40.2981 73.3583 40.5518 73.1043 40.8573 72.9274C41.1629 72.7506 41.5095 72.6571 41.8625 72.6562H63.1375C63.4905 72.6571 63.8371 72.7506 64.1427 72.9274C64.4482 73.1043 64.7019 73.3583 64.8785 73.6641L68.7031 80.2148C68.858 80.4793 68.9505 80.7756 68.9737 81.0812C68.9968 81.3869 68.9499 81.6937 68.8366 81.9785L63.9009 94.493C63.7802 94.799 63.5864 95.0708 63.3365 95.2847C63.0866 95.4985 62.7882 95.648 62.4673 95.72C55.9176 97.2233 49.1126 97.2233 42.563 95.72C42.2444 95.647 41.9484 95.4976 41.7004 95.2848C41.4524 95.0719 41.2599 94.8019 41.1394 94.4981Z" fill="white"/>
</svg>
