<svg width="109" height="97" viewBox="0 0 109 97" fill="none" xmlns="http://www.w3.org/2000/svg">
<path d="M86.75 43.125C86.75 37.9704 83.095 33.6596 78.2521 32.6222C80.1871 29.3919 81.375 25.6562 81.375 21.625C81.375 9.76775 71.7323 0.125 59.875 0.125C51.7265 0.125 44.7067 4.73138 41.0625 11.434C37.4183 4.73138 30.3985 0.125 22.25 0.125C10.3927 0.125 0.75 9.76775 0.75 21.625C0.75 26.4732 2.427 30.9023 5.14137 34.5035C3.78435 35.4953 2.67975 36.7925 1.91687 38.2902C1.154 39.788 0.754271 41.4442 0.75 43.125V86.125C0.75 92.0536 5.57137 96.875 11.5 96.875H76C81.9286 96.875 86.75 92.0536 86.75 86.125V71.9511L108.25 82.7011V45.0761L86.75 55.8261V43.125ZM59.875 10.875C65.8036 10.875 70.625 15.6964 70.625 21.625C70.625 27.5536 65.8036 32.375 59.875 32.375C53.9464 32.375 49.125 27.5536 49.125 21.625C49.125 15.6964 53.9464 10.875 59.875 10.875ZM22.25 10.875C28.1786 10.875 33 15.6964 33 21.625C33 27.5536 28.1786 32.375 22.25 32.375C16.3214 32.375 11.5 27.5536 11.5 21.625C11.5 15.6964 16.3214 10.875 22.25 10.875Z" fill="white"/>
</svg>
