<svg width="99" height="16" viewBox="0 0 99 16" fill="none" xmlns="http://www.w3.org/2000/svg">
<path d="M7.128 13.216C5.868 13.216 4.764 12.94 3.816 12.388C2.88 11.836 2.142 11.074 1.602 10.102C1.074 9.118 0.81 7.984 0.81 6.7C0.81 5.416 1.074 4.288 1.602 3.316C2.142 2.332 2.88 1.564 3.816 1.012C4.764 0.46 5.868 0.184 7.128 0.184C8.376 0.184 9.474 0.46 10.422 1.012C11.37 1.564 12.108 2.332 12.636 3.316C13.164 4.288 13.428 5.416 13.428 6.7C13.428 7.9 13.194 8.974 12.726 9.922C12.258 10.858 11.61 11.602 10.782 12.154L13.698 15.286H10.836L8.856 13.018C8.304 13.15 7.728 13.216 7.128 13.216ZM7.128 11.146C8.328 11.146 9.282 10.75 9.99 9.958C10.71 9.166 11.07 8.08 11.07 6.7C11.07 5.32 10.71 4.234 9.99 3.442C9.282 2.65 8.328 2.254 7.128 2.254C5.928 2.254 4.968 2.65 4.248 3.442C3.528 4.234 3.168 5.32 3.168 6.7C3.168 8.08 3.528 9.166 4.248 9.958C4.968 10.75 5.928 11.146 7.128 11.146ZM24.1529 4.072V13H22.1189L21.9389 11.488C21.6629 12.016 21.2609 12.436 20.7329 12.748C20.2169 13.06 19.6049 13.216 18.8969 13.216C17.7929 13.216 16.9349 12.868 16.3229 12.172C15.7109 11.476 15.4049 10.456 15.4049 9.112V4.072H17.7089V8.896C17.7089 9.664 17.8649 10.252 18.1769 10.66C18.4889 11.068 18.9749 11.272 19.6349 11.272C20.2829 11.272 20.8109 11.044 21.2189 10.588C21.6389 10.132 21.8489 9.496 21.8489 8.68V4.072H24.1529ZM27.7421 2.686C27.3221 2.686 26.9741 2.56 26.6981 2.308C26.4341 2.056 26.3021 1.738 26.3021 1.354C26.3021 0.97 26.4341 0.657999 26.6981 0.417999C26.9741 0.165999 27.3221 0.0399995 27.7421 0.0399995C28.1621 0.0399995 28.5041 0.165999 28.7681 0.417999C29.0441 0.657999 29.1821 0.97 29.1821 1.354C29.1821 1.738 29.0441 2.056 28.7681 2.308C28.5041 2.56 28.1621 2.686 27.7421 2.686ZM26.5901 13V4.072H28.8941V13H26.5901ZM35.6729 13.216C34.7609 13.216 33.9569 13.018 33.2609 12.622C32.5649 12.226 32.0129 11.674 31.6049 10.966C31.2089 10.258 31.0109 9.448 31.0109 8.536C31.0109 7.624 31.2089 6.814 31.6049 6.106C32.0129 5.398 32.5649 4.846 33.2609 4.45C33.9569 4.054 34.7609 3.856 35.6729 3.856C36.8129 3.856 37.7729 4.156 38.5529 4.756C39.3329 5.344 39.8309 6.16 40.0469 7.204H37.6169C37.4969 6.772 37.2569 6.436 36.8969 6.196C36.5489 5.944 36.1349 5.818 35.6549 5.818C35.0189 5.818 34.4789 6.058 34.0349 6.538C33.5909 7.018 33.3689 7.684 33.3689 8.536C33.3689 9.388 33.5909 10.054 34.0349 10.534C34.4789 11.014 35.0189 11.254 35.6549 11.254C36.1349 11.254 36.5489 11.134 36.8969 10.894C37.2569 10.654 37.4969 10.312 37.6169 9.868H40.0469C39.8309 10.876 39.3329 11.686 38.5529 12.298C37.7729 12.91 36.8129 13.216 35.6729 13.216ZM42.0919 13V0.0399995H44.3959V7.69L47.5639 4.072H50.2999L46.6459 8.14L50.8939 13H48.0139L44.3959 8.518V13H42.0919Z" fill="#1C1046"/>
<path d="M55.3103 13V2.254H51.6383V0.399999H61.3043V2.254H57.6143V13H55.3103ZM62.9571 13V0.0399995H65.2611V5.44C65.5611 4.948 65.9631 4.564 66.4671 4.288C66.9831 4 67.5711 3.856 68.2311 3.856C69.3351 3.856 70.1871 4.204 70.7871 4.9C71.3991 5.596 71.7051 6.616 71.7051 7.96V13H69.4191V8.176C69.4191 7.408 69.2631 6.82 68.9511 6.412C68.6511 6.004 68.1711 5.8 67.5111 5.8C66.8631 5.8 66.3231 6.028 65.8911 6.484C65.4711 6.94 65.2611 7.576 65.2611 8.392V13H62.9571ZM75.1503 2.686C74.7303 2.686 74.3823 2.56 74.1063 2.308C73.8423 2.056 73.7103 1.738 73.7103 1.354C73.7103 0.97 73.8423 0.657999 74.1063 0.417999C74.3823 0.165999 74.7303 0.0399995 75.1503 0.0399995C75.5703 0.0399995 75.9123 0.165999 76.1763 0.417999C76.4523 0.657999 76.5903 0.97 76.5903 1.354C76.5903 1.738 76.4523 2.056 76.1763 2.308C75.9123 2.56 75.5703 2.686 75.1503 2.686ZM73.9983 13V4.072H76.3023V13H73.9983ZM78.7071 13V4.072H80.7411L80.9211 5.584C81.1971 5.056 81.5931 4.636 82.1091 4.324C82.6371 4.012 83.2551 3.856 83.9631 3.856C85.0671 3.856 85.9251 4.204 86.5371 4.9C87.1491 5.596 87.4551 6.616 87.4551 7.96V13H85.1511V8.176C85.1511 7.408 84.9951 6.82 84.6831 6.412C84.3711 6.004 83.8851 5.8 83.2251 5.8C82.5771 5.8 82.0431 6.028 81.6231 6.484C81.2151 6.94 81.0111 7.576 81.0111 8.392V13H78.7071ZM89.6583 13V0.0399995H91.9623V7.69L95.1303 4.072H97.8663L94.2123 8.14L98.4603 13H95.5803L91.9623 8.518V13H89.6583Z" fill="#18C5D9"/>
</svg>
